<?xml version="1.0" encoding="utf-8" ?>
<svg baseProfile="full" height="200mm" version="1.1" viewBox="0,0,200,200" width="200mm" xmlns="http://www.w3.org/2000/svg" xmlns:ev="http://www.w3.org/2001/xml-events" xmlns:xlink="http://www.w3.org/1999/xlink"><defs /><rect fill="#1a1a1a" height="200" width="200" x="0" y="0" /><text alignment-baseline="middle" fill="#e1ed5e" style="dominant-baseline: central; font-size:9.0px; font-family:Arial;" text-anchor="middle" x="100.0" y="100.0">2025</text><line stroke="#e1ed5e" stroke-width="0.3" x1="100.0" x2="100.0" y1="15.0" y2="10.0" /><path d="M 100.0 14.0 a86.0,86.0 0 0,1 42.46469731375804,11.215312516191453" fill="none" id="id97" stroke="none" /><text fill="#e1ed5e" style="font-size:6.75px; font-family:Arial;" text-anchor="middle"><textPath startOffset="22.20632615414155" xlink:href="#id97">January</textPath></text><path d="M 101.80526077348638 79.07773832637324 l 2.4382765867672425 -28.258665745282563 a49.36366306415981,49.36366306415981 0 0,0 0.8459400938845009,0.08033220504542242 l -2.924341807741987 28.212507995721964" fill="#aaff21" stroke="none" /><path d="M 102.16513564639614 79.11191278185805 l 1.6530691633946204 -15.947939760763736 a37.03338455448241,37.03338455448241 0 0,0 0.6335059435094639,0.07118177415706003 l -1.9273418104138094 15.917122033136076" fill="#ffbc11" stroke="none" /><path d="M 102.88285421437855 79.19881850522331 l 2.0589431703533214 -14.856266529309256 a35.99826330508366,35.99826330508366 0 0,0 0.6130521718378465,0.09034795413350938 l -2.3143643226198236 14.818624091014778" fill="#ffae10" stroke="none" /><path d="M 104.66035177308747 79.52364482259891 l 3.1784079551318385 -13.965085331925444 a35.32221649945303,35.32221649945303 0 0,0 0.5916913851661478,0.1400342340868915 l -3.41832302726051 13.908305185697683" fill="#ffa50f" stroke="none" /><path d="M 105.36241919743992 79.69619591428918 l 3.616001959826323 -13.69131965679051 a35.160780491127106,35.160780491127106 0 0,0 0.5838399225617995,0.15958550551698547 l -3.8511397716118334 13.627047610447232" fill="#ffa30f" stroke="none" /><path d="M 106.74666289553966 80.11325718540242 l 4.594573665479311 -13.54315551893324 a35.30129954156362,35.30129954156362 0 0,0 0.573760419689932,0.20017374434865426 l -4.827016089232517 13.462060921412379" fill="#ffa50f" stroke="none" /><path d="M 107.08798089147638 80.2323363322302 l 4.71894451206125 -13.160660194988854 a34.98110918617965,34.98110918617965 0 0,0 0.5650576428586391,0.2081154985824496 l -4.944784480692465 13.07748142860008" fill="#ffa00e" stroke="none" /><path d="M 108.09893153111575 80.62456947434976 l 5.016787676847423 -12.001882065708049 a34.00820247819554,34.00820247819554 0 0,0 0.5381656215171443,0.23041443341593565 l -5.222637056154883 11.913748104329322" fill="#ff930d" stroke="none" /><line stroke="#e1ed5e" stroke-width="0.3" x1="143.23703022742887" x2="145.7803849466894" y1="26.81831364943548" y2="22.513508569990506" /><path d="M 143.74570117128098 25.957352633546492 a86.0,86.0 0 0,1 28.547481713284135,27.462654790039103" fill="none" id="id98" stroke="none" /><text fill="#e1ed5e" style="font-size:6.75px; font-family:Arial;" text-anchor="middle"><textPath startOffset="19.985693538727396" xlink:href="#id98">February</textPath></text><path d="M 111.90073688211348 82.69761687909136 l 4.87778799175746 -7.0917756985958045 a29.60732817149011,29.60732817149011 0 0,0 0.41741942436694973,0.29242898228711334 l -4.99913855570806 7.006761873544755" fill="#ff5608" stroke="none" /><path d="M 112.19680574252982 82.90503203632743 l 25.35345273312987 -35.53524352118149 a64.65261845068085,64.65261845068085 0 0,0 0.900379098852051,0.6541637066431539 l -25.96137714833571 35.09356057972167" fill="#34ff5f" stroke="none" /><path d="M 112.48926042617603 83.11751280151076 l 6.403663889496231 -8.656219019283363 a31.767406322761346,31.767406322761346 0 0,0 0.4368076552770287,0.3289944699822689 l -6.551717698531643 8.544707959795247" fill="#ff740a" stroke="none" /><path d="M 112.77801427241765 83.33499621200491 l 8.665622430163378 -11.301648874796925 a35.24149849529007,35.24149849529007 0 0,0 0.47822284659788533,0.37326051721474957 l -8.858877831920694 11.150809968358951" fill="#ffa40f" stroke="none" /><path d="M 113.34407831869373 83.78471172551755 l 8.872290681262331 -10.78131794611322 a34.96260572343133,34.96260572343133 0 0,0 0.4614106030723343,0.3864181106145066 l -9.056558821293782 10.626998678104894" fill="#ffa00e" stroke="none" /><path d="M 114.16331599549186 84.49514656593476 l 18.26842227341 -19.99879194328449 a48.086655968398965,48.086655968398965 0 0,0 0.6063317807191201,0.5635193097537858 l -18.609961937923966 19.681368047456065" fill="#b9ff1f" stroke="none" /><path d="M 114.94478906791727 85.2469230424477 l 13.674416156585298 -13.499000420205613 a40.21490748268626,40.21490748268626 0 0,0 0.4820728259650178,0.49681842255468744 l -13.904753246253426 13.26161780210081" fill="#ffe515" stroke="none" /><path d="M 115.19652480421416 85.50635884689758 l 7.665244347438491 -7.310704411301438 a31.59256200809606,31.59256200809606 0 0,0 0.3719387481464666,0.3967583238433993 l -7.789950417555421 7.1776766705799835" fill="#ff720a" stroke="none" /><path d="M 115.4437574822437 85.77008943001954 l 12.066140161956795 -11.117766879394816 a37.40720813522383,37.40720813522383 0 0,0 0.43224271146722043,0.4772931978981465 l -12.25572651404005 10.90842089422712" fill="#ffc111" stroke="none" /><path d="M 115.68641384162765 86.03803664274999 l 10.018234642738753 -8.916902639343952 a34.41179249901034,34.41179249901034 0 0,0 0.3900136477921539,0.4458530201025144 l -10.170240154108754 8.74313406303849" fill="#ff990e" stroke="none" /><path d="M 115.9244219780498 86.31012108654704 l 16.11035342749109 -13.849720132968654 a42.24519322859247,42.24519322859247 0 0,0 0.4693026291150727,0.5555062872030895 l -16.346366670093282 13.57035489613646" fill="#ffff18" stroke="none" /><path d="M 116.15771136456269 86.58626213691792 l 14.891733162265377 -12.362753638717464 a40.354622034742405,40.354622034742405 0 0,0 0.43909961841072465,0.5382842124482429 l -15.10233127275251 12.104585256661121" fill="#ffe715" stroke="none" /><path d="M 116.82858285166822 87.43820079747576 l 7.825506998414386 -5.841397843092001 a30.76526950695742,30.76526950695742 0 0,0 0.3131280157014892,0.42710626151648934 l -7.924897626629501 5.7058291379040185" fill="#ff6609" stroke="none" /><path d="M 117.04232023915458 87.72973835380427 l 22.321160235421708 -16.070961728910166 a48.504726960060275,48.504726960060275 0 0,0 0.4820154474487119,0.6817766670119911 l -22.594488302674304 15.68435856156638" fill="#b4ff20" stroke="none" /><path d="M 117.2510076193507 88.02491185347247 l 13.888541129910541 -9.640973323250535 a37.90680162942847,37.90680162942847 0 0,0 0.367471304595249,0.5392187959161643 l -14.052436900174524 9.400476504063963" fill="#ffc712" stroke="none" /><path d="M 117.45458315368197 88.32363383020206 l 52.36374946104589 -35.02909850939381 a84.0,84.0 0 0,0 0.7936134585683003,1.208727744089304 l -52.95895955497212 34.12255270132683" fill="#4dd2ff" stroke="none" /><path d="M 117.65298651832404 88.62581576622439 l 15.945013541120264 -10.27370192791418 a39.968194646041994,39.968194646041994 0 0,0 0.3676548682612122,0.5815417090816477 l -16.119496005627433 9.997712571118328" fill="#ffe215" stroke="none" /><line stroke="#e1ed5e" stroke-width="0.3" x1="172.23445277983987" x2="176.4835382374775" y1="55.19839476539836" y2="52.563006222186495" /><path d="M 173.08426987136738 54.67131705675599 a86.0,86.0 0 0,1 12.851231095245387,41.99856678651699" fill="none" id="id99" stroke="none" /><text fill="#e1ed5e" style="font-size:6.75px; font-family:Arial;" text-anchor="middle"><textPath startOffset="22.20632615414155" xlink:href="#id99">March</textPath></text><path d="M 118.21658344932153 89.55222093294921 l 23.535805035588055 -13.498518636114714 a48.13197604382601,48.13197604382601 0 0,0 0.40601008407902134,0.7222466357539541 l -23.76467276095951 13.091388490425965" fill="#b8ff1f" stroke="none" /><path d="M 118.73160827565052 90.50648371742162 l 14.994679175100185 -7.599573341809545 a37.81052998991184,37.81052998991184 0 0,0 0.2892325260859149,0.5830751233812309 l -15.12327171413951 7.340338629929364" fill="#ffc612" stroke="none" /><path d="M 119.196687751892 91.48605970444005 l 13.21147610172181 -5.859433679395575 a35.452545237071625,35.452545237071625 0 0,0 0.2426123862042768,0.5599828372247057 l -13.31037919776877 5.631151697584266" fill="#ffa70f" stroke="none" /><path d="M 119.34039704204932 91.81776055985345 l 42.698720427948324 -18.06432171840926 a67.36270532799271,67.36270532799271 0 0,0 0.44259964037802846,1.0717901358639588 l -43.00334175521255 17.326657012091996" fill="#38ff7e" stroke="none" /><path d="M 119.7369772167798 92.82701384747503 l 32.279962380331376 -11.731468330484374 a55.34564485440282,55.34564485440282 0 0,0 0.3177022370377465,0.8981870063490528 l -32.47711769817894 11.174083697708706" fill="#67ff28" stroke="none" /><path d="M 119.85752413597 93.16781622104841 l 14.078083484552126 -4.843708257045754 a35.88804702697411,35.88804702697411 0 0,0 0.19595336158851584,0.585875609735029 l -14.159374139912412 4.600659544388411" fill="#ffad10" stroke="none" /><path d="M 120.18372546131832 94.20196356495316 l 26.862949263144696 -7.716729940615961 a48.94934639827352,48.94934639827352 0 0,0 0.22566401445155346,0.8118335264547099 l -26.991800048162613 7.2531851107423" fill="#afff20" stroke="none" /><path d="M 120.28053869075195 94.5502522615342 l 25.961323647413845 -6.97627745458207 a47.88231337978708,47.88231337978708 0 0,0 0.20704236635335005,0.7978186954560764 l -26.077562345637496 6.528362333577143" fill="#bbff1f" stroke="none" /><path d="M 120.37134235888165 94.90015583598534 l 15.345557412032086 -3.8416688518900277 a36.81911981917941,36.81911981917941 0 0,0 0.1486216039968192,0.6161324981791192 l -15.409411816289724 3.5769511220515025" fill="#ffb911" stroke="none" /><path d="M 120.45610955862082 95.25157060432595 l 17.100293706217563 -3.969451624052508 a38.55495915787323,38.55495915787323 0 0,0 0.144499604506277,0.6477633934765341 l -17.166087697725878 3.67451006102601" fill="#ffd013" stroke="none" /><path d="M 120.53481517161879 95.60439243477599 l 29.144300122216364 -6.238522481440706 a50.804519663387666,50.804519663387666 0 0,0 0.17568857088836176,0.8567198661776285 l -29.247367989019725 5.7359269590996655" fill="#99ff23" stroke="none" /><path d="M 120.73433829027371 96.67025291283417 l 18.671045293027653 -2.9984009042605146 a39.91027076265595,39.91027076265595 0 0,0 0.10309033238647158,0.6792364854878842 l -18.719891518853427 2.676565306380548" fill="#ffe115" stroke="none" /><path d="M 120.78858239683441 97.02765380044208 l 27.787957012174388 -3.9731149936992542 a49.070557487581354,49.070557487581354 0 0,0 0.11235755868882691,0.8371943186886593 l -27.85223056992105 3.4942023329459304" fill="#adff20" stroke="none" /><path d="M 120.83666639777658 97.38593545837742 l 2.7161485885757384 -0.34075449400733737 a23.737439822244166,23.737439822244166 0 0,0 0.047372748740419246,0.4058607811577982 l -2.7216116903197465 0.2939499745246864" fill="#ff0000" stroke="none" /><path d="M 120.91429891909075 98.10471618934814 l 13.62840380977592 -1.2350255299314343 a34.684249283826176,34.684249283826176 0 0,0 0.048765255401823214,0.5950596337647136 l -13.647643548997237 1.0002519789589521" fill="#ff9c0e" stroke="none" /><path d="M 120.98425023603335 99.18683210126433 l 16.741649630271137 -0.6487614233573763 a37.754215103286526,37.754215103286526 0 0,0 0.019575210934851598,0.6496059513026378 l -16.75033653566163 0.3604853246297394" fill="#ffc512" stroke="none" /><line stroke="#e1ed5e" stroke-width="0.3" x1="184.98032266829074" x2="189.97916517819016" y1="98.17113171792111" y2="98.06355123074" /><path d="M 185.9800911702706 98.14961562048488 a86.0,86.0 0 0,1 -9.607161424134198,41.387399972396054" fill="none" id="id100" stroke="none" /><text fill="#e1ed5e" style="font-size:6.75px; font-family:Arial;" text-anchor="middle"><textPath startOffset="21.466115282336823" xlink:href="#id100">April</textPath></text><path d="M 120.99513854157772 99.54816195383933 l 27.218459045303717 -0.5857706216217233 a48.2247615236944,48.2247615236944 0 0,0 0.0107173627990927,0.8300715597379237 l -27.224509415220528 0.11716280382333685" fill="#b7ff1f" stroke="none" /><path d="M 120.99980553446 99.90962569577887 l 5.873320119896767 -0.025276292127211067 a26.873374508894173,26.873374508894173 0 0,0 -0.0019908086458898713,0.46259381779275965 l -5.8728850139613735 -0.0758270038692333" fill="#ff2e04" stroke="none" /><path d="M 120.99824983174949 100.27111621757518 l 14.608472996101531 0.1886154310472026 a35.609690587368945,35.609690587368945 0 0,0 -0.0131890448188017,0.6128430873732392 l -14.603061888597722 -0.44004833421055667" fill="#ffa90f" stroke="none" /><path d="M 120.95626037817324 101.35467743843564 l 19.664607792600794 1.2711810233121437 a40.70565149470691,40.70565149470691 0 0,0 -0.051218256871443026,0.6988324219162971 l -19.639812977065013 -1.609486581725211" fill="#ffeb16" stroke="none" /><path d="M 120.92983693683757 101.71520430193887 l 27.855163075577924 2.282736157124549 a48.94854189989316,48.94854189989316 0 0,0 -0.07604599719678609,0.8391612422557928 l -27.811742482104062 -2.761878787928912" fill="#afff20" stroke="none" /><path d="M 120.81339534386255 102.79330883721812 l 15.610245845311724 2.0950083804425783 a36.750201124595094,36.750201124595094 0 0,0 -0.0895409007557463,0.6262488513365242 l -15.571870893539376 -2.3634027037595122" fill="#ffb811" stroke="none" /><path d="M 120.49622156327973 104.57218783832717 l 29.084290988614914 6.4879685816215735 a50.79915634085192,50.79915634085192 0 0,0 -0.19772829954793356,0.8518083394221119 l -28.96830212313643 -6.98764557839225" fill="#99ff23" stroke="none" /><path d="M 120.13307415673323 105.97154293290107 l 54.78553909080926 16.249589915382373 a78.14459262160057,78.14459262160057 0 0,0 -0.39360027489429245,1.2863084719140403 l -54.49771204340883 -17.19022535984847" fill="#46fff3" stroke="none" /><path d="M 119.9155931802556 106.66101706037122 l 18.307113746034325 6.1230411710451556 a40.30393863677962,40.30393863677962 0 0,0 -0.22571965394222224,0.6560469713840517 l -18.199003261148874 -6.437260845518508" fill="#ffe615" stroke="none" /><path d="M 119.12269723197855 108.67885076344098 l 26.951616362732633 12.232011698355434 a50.59749541350791,50.59749541350791 0 0,0 -0.36677252982219605,0.7899953996209833 l -26.737069216070605 -12.694127165255248" fill="#9cff22" stroke="none" /><path d="M 118.81262510543309 109.33194174019688 l 14.628313676728265 7.2563276110322885 a37.329171792328744,37.329171792328744 0 0,0 -0.2904944242894879,0.5731730583363328 l -14.501240582652507 -7.507054881071316" fill="#ffc011" stroke="none" /><path d="M 118.64920377521936 109.65438752849418 l 13.631289984077496 7.056695696276047 a36.34956093117495,36.34956093117495 0 0,0 -0.2924365307832585,0.553179708657866 l -13.507800945069345 -7.290290420020048" fill="#ffb310" stroke="none" /><line stroke="#e1ed5e" stroke-width="0.3" x1="174.80103733775053" x2="179.2010983576182" y1="140.37084112569926" y2="142.7455964860345" /><path d="M 175.68104954172406 140.8457921977663 a86.0,86.0 0 0,1 -30.038265399797805,32.042727171017184" fill="none" id="id101" stroke="none" /><text fill="#e1ed5e" style="font-size:6.75px; font-family:Arial;" text-anchor="middle"><textPath startOffset="22.206326154141568" xlink:href="#id101">May</textPath></text><path d="M 118.30583269289576 110.29060199501025 l 23.487013957229742 13.20319685751856 a47.943723422821364,47.943723422821364 0 0,0 -0.410599188315087,0.7159142943359348 l -23.256262772762277 -13.60553099771281" fill="#baff1f" stroke="none" /><path d="M 117.35343817320211 111.8261652097733 l 22.306276617801846 15.201466698650819 a47.99360232240379,47.99360232240379 0 0,0 -0.47111226879816714,0.6786723604171027 l -22.041303441841546 -15.583180321254941" fill="#baff1f" stroke="none" /><path d="M 116.93607887273984 112.41649034213515 l 12.378247993409898 9.07496934902168 a36.3484882666678,36.3484882666678 0 0,0 -0.37428338382535975,0.5014137571504974 l -12.220203342889446 -9.286695985681492" fill="#ffb310" stroke="none" /><path d="M 116.27256486870786 113.27417163493432 l 21.59807236216589 17.618397703882493 a48.872650886012366,48.872650886012366 0 0,0 -0.5373757421612675,0.6473036989977643 l -21.29160062011108 -17.98756265999403" fill="#afff20" stroke="none" /><path d="M 115.56566222782051 114.09645910891815 l 20.291699120022876 18.37641744433023 a48.37600721920239,48.37600721920239 0 0,0 -0.5642798445318339,0.6124143246165011 l -19.97237286749532 -18.722983023748064" fill="#b5ff1f" stroke="none" /><path d="M 114.81725581225074 114.88116024355365 l 13.945233291147854 14.005376830150565 a40.764111710346526,40.764111710346526 0 0,0 -0.5014957238917366,0.490819116686376 l -13.702087614880323 -14.243346049759515" fill="#ffec16" stroke="none" /><path d="M 114.29624159901734 115.38237550388516 l 9.065400215585184 9.754129380320332 a34.31632535787408,34.31632535787408 0 0,0 -0.4361448904122987,0.3984080164960937 l -8.89615577570602 -9.908730163403009" fill="#ff970e" stroke="none" /><path d="M 112.63410532772338 116.77436683061366 l 8.935872435330857 11.864203937962518 a35.852917264364976,35.852917264364976 0 0,0 -0.49616174339829494,0.36704859621403074 l -8.730325721514 -12.016262482916318" fill="#ffac0f" stroke="none" /><path d="M 112.04921762599082 117.19931262002967 l 17.409354879691623 24.8504879223835 a51.3419245814693,51.3419245814693 0 0,0 -0.7281827984191327,0.5008507686779367 l -16.97901519664961 -25.14647948042653" fill="#93ff23" stroke="none" /><path d="M 111.7513745106137 117.40417183066458 l 9.514887292160262 14.091860763402371 a38.003341435071874,38.003341435071874 0 0,0 -0.5453032527052875,0.36139726141553086 l -9.27090934071501 -14.25355604590922" fill="#ffc912" stroke="none" /><path d="M 111.45004920935366 117.60387380957326 l 16.994571376073328 26.128297309655686 a52.16894891648115,52.16894891648115 0 0,0 -0.7569918144255179,0.4831479917944464 l -16.54229775960088 -26.41695973027394" fill="#8aff24" stroke="none" /><line stroke="#e1ed5e" stroke-width="0.3" x1="143.8653032363475" x2="146.44561519142675" y1="172.8068346515853" y2="177.08958963109032" /><path d="M 144.38136562736335 173.6633856474863 a86.0,86.0 0 0,1 -40.68145358897372,12.25698825130547" fill="none" id="id102" stroke="none" /><text fill="#e1ed5e" style="font-size:6.75px; font-family:Arial;" text-anchor="middle"><textPath startOffset="21.466115282336833" xlink:href="#id102">June</textPath></text><path d="M 110.21172684928248 118.3499491758327 l 9.33925141492233 16.78215558773879 a40.205789834375494,40.205789834375494 0 0,0 -0.6076381202016268,0.3313327516295556 l -9.048990482852055 -16.940428991128115" fill="#ffe515" stroke="none" /><path d="M 109.89434966115114 118.52300852407294 l 5.763031512641168 10.788852778499217 a33.231593375019685,33.231593375019685 0 0,0 -0.5068753181694783,0.2651732100592833 l -5.576465291945195 -10.886455407503217" fill="#ff890c" stroke="none" /><path d="M 109.2508944713604 118.85261126421891 l 6.166383552186506 12.566615301401223 a34.99800365216725,34.99800365216725 0 0,0 -0.5431145731201379,0.2607280001159212 l -5.949156311066135 -12.670897578016705" fill="#ffa10e" stroke="none" /><path d="M 108.59647513512805 119.15986991738527 l 11.065031190642728 24.661800902349434 a48.03034108177364,48.03034108177364 0 0,0 -0.7572310914910281,0.3319478575391871 l -10.638879424493947 -24.848613313183076" fill="#b9ff1f" stroke="none" /><path d="M 107.93186726928326 119.44442032107085 l 6.4517724433961225 15.816070913228032 a38.081377777966956,38.081377777966956 0 0,0 -0.6090824852812727,0.242366490923328 l -6.178568882072983 -15.924784248557428" fill="#ffca12" stroke="none" /><path d="M 106.2309692047433 120.05430185196036 l 4.472774394471123 14.395572321904671 a36.07442248509124,36.07442248509124 0 0,0 -0.5945838287955036,0.17914323017056447 l -4.224315591235373 -14.470430921180961" fill="#ffaf10" stroke="none" /><path d="M 105.18746579009965 120.34920634021253 l 6.675702690554374 26.187209133073285 a48.02470959311111,48.02470959311111 0 0,0 -0.8028055501820407,0.19731007207275056 l -6.2239438556291224 -26.298240463460065" fill="#b9ff1f" stroke="none" /><path d="M 104.48393922423573 120.51570834832081 l 2.1643358470459537 9.902650501106868 a31.136411426430964,31.136411426430964 0 0,0 -0.5245870582437693,0.10993231851941146 l -1.9935573273728062 -9.93843880035282" fill="#ff6c09" stroke="none" /><path d="M 103.06178313531738 120.77559828337769 l 3.1428862620113143 21.3259200747166 a42.556265935665664,42.556265935665664 0 0,0 -0.7256277189243667,0.10056538990808402 l -2.775329951900117 -21.376860030117285" fill="#fbff18" stroke="none" /><path d="M 102.70371172650421 120.8252237178851 l 1.3835909197408107 10.657049771682429 a31.74648936487194,31.74648936487194 0 0,0 -0.5425211641639782,0.06569175762746572 l -1.1999423325254521 -10.679287058035246" fill="#ff740a" stroke="none" /><path d="M 102.34483914955558 120.86867818915974 l 1.5077281097383366 13.418529251715547 a34.502968982118006,34.502968982118006 0 0,0 -0.5907687126808383,0.06123559257690079 l -1.2765268004518957 -13.442494212748207" fill="#ff9a0e" stroke="none" /><line stroke="#e1ed5e" stroke-width="0.3" x1="102.19456741930631" x2="102.32365962044197" y1="184.97166512339345" y2="189.96999836594603" /><path d="M 102.22038585953345 185.97133177190398 a86.0,86.0 0 0,1 -42.740103519485714,-10.115201625700543" fill="none" id="id103" stroke="none" /><text fill="#e1ed5e" style="font-size:6.75px; font-family:Arial;" text-anchor="middle"><textPath startOffset="22.20632615414155" xlink:href="#id103">July</textPath></text><path d="M 100.54218724476979 120.99299961872073 l 0.3857916493811033 14.937503651163606 a35.94248475071192,35.94248475071192 0 0,0 -0.6186220397297795,0.010650139428798208 l -0.1286099197586558 -14.941931267871565" fill="#ffad10" stroke="none" /><path d="M 99.81925306533755 120.99922214144158 l -0.15191485613457278 17.649504355427407 a38.6501581328827,38.6501581328827 0 0,0 -0.665225006726026,-0.011452451768854031 l 0.4556995527532667 -17.644274426379393" fill="#ffd113" stroke="none" /><path d="M 99.45781275523022 120.99299961872073 l -0.3767009217265753 14.585518900459602 a35.59038262624027,35.59038262624027 0 0,0 -0.6122895675701419,-0.021088490719559875 l 0.6277108409713602 -14.576873611313948" fill="#ffa90f" stroke="none" /><path d="M 98.01472825383883 120.90594882070398 l -2.5649941828554508 27.01072899257691 a48.1322442099528,48.1322442099528 0 0,0 -0.8241326700056283,-0.08542472092126165 l 3.0295594494666727 -26.96257490319989" fill="#b8ff1f" stroke="none" /><path d="M 97.2962882734958 120.8252237178851 l -1.8193423046299757 14.013406141608167 a35.131014051053725,35.131014051053725 0 0,0 -0.5990196044902877,-0.08301865890328303 l 2.0602905003070946 -13.980012917212278" fill="#ffa20f" stroke="none" /><path d="M 93.42475214034765 119.94407469862007 l -3.3714346969759488 10.22625258746717 a31.767674488888133,31.767674488888133 0 0,0 -0.5178588805592549,-0.17568584896819828 l 3.5469633104724294 -10.16670375160085" fill="#ff740a" stroke="none" /><path d="M 93.08242187328487 119.8279376855182 l -4.865911065027849 13.947219621278137 a35.77166292794844,35.77166292794844 0 0,0 -0.5796379608632197,-0.20783755023470343 l 5.105268586520796 -13.861394530003475" fill="#ffab0f" stroke="none" /><path d="M 92.7421414339146 119.70592522655815 l -9.431178311229571 25.60673963362544 a48.288316895742966,48.288316895742966 0 0,0 -0.7775103777054794,-0.2939878959298175 l 9.870558909695333 -25.44060348758899" fill="#b6ff1f" stroke="none" /><path d="M 92.06813273071674 119.44442032107085 l -5.494494999206649 13.469371913260723 a35.54693971370074,35.54693971370074 0 0,0 -0.5645675677163001,-0.23598928909319977 l 5.725534026420412 -13.37279758114755" fill="#ffa80f" stroke="none" /><line stroke="#e1ed5e" stroke-width="0.3" x1="58.666819895761336" x2="56.23545636021788" y1="174.27360380694188" y2="178.64263932499728" /><path d="M 58.180547188652646 175.14741091055294 a86.0,86.0 0 0,1 -31.652253787137756,-30.449443065178592" fill="none" id="id104" stroke="none" /><text fill="#e1ed5e" style="font-size:6.75px; font-family:Arial;" text-anchor="middle"><textPath startOffset="22.20632615414155" xlink:href="#id104">August</textPath></text><path d="M 88.54995079064634 117.60387380957326 l -9.220611375014508 14.17622545764008 a37.91109228745706,37.91109228745706 0 0,0 -0.5439795859340528,-0.3605200072568967 l 9.463265659688524 -14.015407429291864" fill="#ffc712" stroke="none" /><path d="M 88.24862548938628 117.40417183066458 l -10.605694403895953 15.70738194261525 a39.95264101068834,39.95264101068834 0 0,0 -0.5666485269603186,-0.3897460238204334 l 10.874499815479162 -15.522495129429714" fill="#ffe215" stroke="none" /><path d="M 87.95078237400918 117.19931262002967 l -9.40353811422722 13.422812732014103 a37.3889728386023,37.3889728386023 0 0,0 -0.5239310926762327,-0.37381092339119915 l 9.63319653475234 -13.258957546778685" fill="#ffc011" stroke="none" /><path d="M 86.51685102203217 116.09983520530335 l -19.68761629963604 23.50840879436439 a51.66345576748719,51.66345576748719 0 0,0 -0.6768762038557098,-0.5768485854414825 l 20.089357980068808 -23.166035818699953" fill="#90ff24" stroke="none" /><path d="M 85.97065885151581 115.62618273729859 l -9.902273963199521 11.029366299248343 a35.822346325911234,35.822346325911234 0 0,0 -0.45528573207333684,-0.41589272152847395 l 10.090659244739712 -10.857280811133293" fill="#ffac0f" stroke="none" /><line stroke="#e1ed5e" stroke-width="0.3" x1="26.63291911575756" x2="22.317208475507996" y1="142.92168965132927" y2="145.44649492493687" /><path d="M 25.769776987707644 143.4266507060508 a86.0,86.0 0 0,1 -11.730757126820373,-40.83630448921669" fill="none" id="id105" stroke="none" /><text fill="#e1ed5e" style="font-size:6.75px; font-family:Arial;" text-anchor="middle"><textPath startOffset="21.46611528233685" xlink:href="#id105">September</textPath></text><line stroke="#e1ed5e" stroke-width="0.3" x1="15.007084014347285" x2="10.007500721073583" y1="101.09737516637583" y2="101.16192664675087" /><path d="M 14.007167355692545 101.11028546245083 a86.0,86.0 0 0,1 10.666146001902534,-42.60595125391555" fill="none" id="id106" stroke="none" /><text fill="#e1ed5e" style="font-size:6.75px; font-family:Arial;" text-anchor="middle"><textPath startOffset="22.20632615414155" xlink:href="#id106">October</textPath></text><line stroke="#e1ed5e" stroke-width="0.3" x1="26.266209847984243" x2="21.928928074336255" y1="57.711370442889674" y2="55.22380399835377" /><path d="M 25.398753493254645 57.213857153982495 a86.0,86.0 0 0,1 29.58750427330803,-30.492523968695096" fill="none" id="id107" stroke="none" /><text fill="#e1ed5e" style="font-size:6.75px; font-family:Arial;" text-anchor="middle"><textPath startOffset="21.46611528233685" xlink:href="#id107">November</textPath></text><line stroke="#e1ed5e" stroke-width="0.3" x1="56.762969772571076" x2="54.21961505331055" y1="26.818313649435495" y2="22.513508569990535" /><path d="M 56.25429882871897 25.957352633546506 a86.0,86.0 0 0,1 42.265352541879196,-11.944610805530505" fill="none" id="id108" stroke="none" /><text fill="#e1ed5e" style="font-size:6.75px; font-family:Arial;" text-anchor="middle"><textPath startOffset="22.20632615414155" xlink:href="#id108">December</textPath></text></svg>