<?xml version="1.0" encoding="utf-8" ?>
<svg baseProfile="full" height="200mm" version="1.1" viewBox="0,0,200,200" width="200mm" xmlns="http://www.w3.org/2000/svg" xmlns:ev="http://www.w3.org/2001/xml-events" xmlns:xlink="http://www.w3.org/1999/xlink"><defs /><rect fill="#1a1a1a" height="200" width="200" x="0" y="0" /><text alignment-baseline="middle" fill="#e1ed5e" style="dominant-baseline: central; font-size:9.0px; font-family:Arial;" text-anchor="middle" x="100.0" y="100.0">2021</text><line stroke="#e1ed5e" stroke-width="0.3" x1="100.0" x2="100.0" y1="15.0" y2="10.0" /><path d="M 100.0 14.0 a86.0,86.0 0 0,1 42.46469731375804,11.215312516191453" fill="none" id="id49" stroke="none" /><text fill="#e1ed5e" style="font-size:6.75px; font-family:Arial;" text-anchor="middle"><textPath startOffset="22.20632615414155" xlink:href="#id49">January</textPath></text><line stroke="#e1ed5e" stroke-width="0.3" x1="143.23703022742887" x2="145.7803849466894" y1="26.81831364943548" y2="22.513508569990506" /><path d="M 143.74570117128098 25.957352633546492 a86.0,86.0 0 0,1 28.547481713284135,27.462654790039103" fill="none" id="id50" stroke="none" /><text fill="#e1ed5e" style="font-size:6.75px; font-family:Arial;" text-anchor="middle"><textPath startOffset="19.985693538727396" xlink:href="#id50">February</textPath></text><path d="M 111.2981086023043 82.29822771554956 l 1.6937689779401741 -2.653781602333707 a24.148239213197968,24.148239213197968 0 0,0 0.34846251194514544,0.22664971088449487 l -1.7391985156696 2.624232967289684" fill="#ff0a01" stroke="none" /><path d="M 111.60114157652 82.49532879139004 l 1.7668027548269296 -2.665884310584284 a24.198207487309645,24.198207487309645 0 0,0 0.34522235080830665,0.23309567230513673 l -1.8124298000417782 2.6350767259804777" fill="#ff0b01" stroke="none" /><path d="M 111.90073688211348 82.69761687909136 l 1.3922578443145113 -2.024192187764929 a23.45677347715736,23.45677347715736 0 0,0 0.33070572344887716,0.23168049328644472 l -1.4268947073470395 1.9999268517145488" fill="#ff0000" stroke="none" /><path d="M 112.48926042617603 83.11751280151076 l 2.133431043612103 -2.8838875204453385 a24.5872461928934,24.5872461928934 0 0,0 0.33807913841369164,0.25463419793761083 l -2.1827563357841777 2.8467367330018805" fill="#ff1101" stroke="none" /><path d="M 113.06298171725822 83.55741782278167 l 2.130268359835466 -2.68140255603715 a24.42461135786802,24.42461135786802 0 0,0 0.3269369163847538,0.2643602494446069 l -2.176108674784711 2.6443362093284155" fill="#ff0e01" stroke="none" /><path d="M 113.34407831869373 83.78471172551755 l 13.375527379270777 -16.2535041460503 a42.0494923857868,42.0494923857868 0 0,0 0.5549380899721806,0.4647446911865962 l -13.653323006202074 16.020858297469882" fill="#ffff18" stroke="none" /><path d="M 115.4437574822437 85.77008943001952 l 2.449572143709078 -2.2570409163555065 a24.33086135786802,24.33086135786802 0 0,0 0.28114467798934445,0.3104469754367537 l -2.4880604623144578 2.2145411536492063" fill="#ff0d01" stroke="none" /><line stroke="#e1ed5e" stroke-width="0.3" x1="172.23445277983987" x2="176.4835382374775" y1="55.19839476539836" y2="52.563006222186495" /><path d="M 173.08426987136738 54.67131705675599 a86.0,86.0 0 0,1 12.851231095245387,41.99856678651699" fill="none" id="id51" stroke="none" /><text fill="#e1ed5e" style="font-size:6.75px; font-family:Arial;" text-anchor="middle"><textPath startOffset="22.20632615414155" xlink:href="#id51">March</textPath></text><path d="M 118.3937258080291 89.86733742301442 l 4.895212017075185 -2.6966549425335105 a26.588832487309645,26.588832487309645 0 0,0 0.21738510425276317,0.4027815831048057 l -4.940905220546413 2.611992376096246" fill="#ff2e04" stroke="none" /><path d="M 118.73160827565052 90.50648371742162 l 19.046787280923148 -9.653254676337783 a42.353347081218274,42.353347081218274 0 0,0 0.323982910786034,0.6531297784394536 l -19.21013020466259 9.32396530939938" fill="#fbff18" stroke="none" /><path d="M 119.04729006885535 91.15688171328212 l 3.250768295210907 -1.5092398159183298 a24.584033946700508,24.584033946700508 0 0,0 0.17489512911102287,0.38535823376825756 l -3.2762657412852767 1.4530595733080094" fill="#ff1101" stroke="none" /><path d="M 119.196687751892 91.48605970444005 l 3.6929088634384333 -1.637845340124373 a25.039815989847714,25.039815989847714 0 0,0 0.17135496102718606,0.3955108753917404 l -3.7205545343083 1.57403532014603" fill="#ff1802" stroke="none" /><path d="M 119.61058180528143 92.48833698450437 l 3.685761032622208 -1.411798747615276 a24.946898794416242,24.946898794416242 0 0,0 0.1501511208918357,0.4023303535495048 l -3.7095167420156687 1.3481452570364378" fill="#ff1602" stroke="none" /><path d="M 120.08093135843002 93.85539295169968 l 4.293841734619878 -1.3138817974075347 a25.49036326142132,25.49036326142132 0 0,0 0.12477423922641082,0.42067670607450053 l -4.315821870957992 1.2397757045865043" fill="#ff1e03" stroke="none" /><path d="M 120.18372546131832 94.20196356495316 l 2.811807747313594 -0.8077281767687289 a23.92552347715736,23.92552347715736 0 0,0 0.11030034255780484,0.39680901842278105 l -2.8252948604377623 0.7592078549269958" fill="#ff0701" stroke="none" /><path d="M 120.28053869075195 94.5502522615342 l 3.0275119793629566 -0.8135472540596324 a24.134914340101524,24.134914340101524 0 0,0 0.10435898819415483,0.40213775222256337 l -3.041067299427414 0.7613130762882185" fill="#ff0a01" stroke="none" /><path d="M 120.6074358757038 95.95851677861258 l 4.123425193153905 -0.8086767239404832 a25.201974936548222,25.201974936548222 0 0,0 0.07982338661649405,0.4264197231521241 l -4.136734303680258 0.7375789233257957" fill="#ff1a02" stroke="none" /><path d="M 120.73433829027371 96.67025291283417 l 4.227755446684878 -0.6789392642663693 a25.281924175126903,25.281924175126903 0 0,0 0.06530454233405353,0.43027534002982937 l -4.238815882458232 0.6060648118444572" fill="#ff1b02" stroke="none" /><path d="M 120.94382443527127 98.46500227214037 l 3.432773889236045 -0.25159206889450597 a24.441981281725887,24.441981281725887 0 0,0 0.02714155038909459,0.41986777138474257 l -3.436596030629555 0.19246523325672815" fill="#ff0f01" stroke="none" /><line stroke="#e1ed5e" stroke-width="0.3" x1="184.98032266829074" x2="189.97916517819016" y1="98.17113171792111" y2="98.06355123074" /><path d="M 185.9800911702706 98.14961562048488 a86.0,86.0 0 0,1 -9.607161424134198,41.387399972396054" fill="none" id="id52" stroke="none" /><text fill="#e1ed5e" style="font-size:6.75px; font-family:Arial;" text-anchor="middle"><textPath startOffset="21.466115282336823" xlink:href="#id52">April</textPath></text><line stroke="#e1ed5e" stroke-width="0.3" x1="174.80103733775053" x2="179.2010983576182" y1="140.37084112569926" y2="142.7455964860345" /><path d="M 175.68104954172406 140.8457921977663 a86.0,86.0 0 0,1 -30.038265399797805,32.042727171017184" fill="none" id="id53" stroke="none" /><text fill="#e1ed5e" style="font-size:6.75px; font-family:Arial;" text-anchor="middle"><textPath startOffset="22.206326154141568" xlink:href="#id53">May</textPath></text><path d="M 118.30583269289576 110.29060199501023 l 24.961961726971303 14.032336985502402 a49.63574714467005,49.63574714467005 0 0,0 -0.4250900020692445,0.741180249550632 l -24.71671972874968 -14.45993708091135" fill="#a5ff21" stroke="none" /><path d="M 118.12598468904814 110.60418214915192 l 35.37746291047972 20.696754803299672 a61.98683375634518,61.98683375634518 0 0,0 -0.5467212888852228,0.9163363275214265 l -35.015960745896265 -21.302653224707203" fill="#31ff3f" stroke="none" /><path d="M 117.94076556474637 110.91462005526583 l 10.168825759473464 6.186406548388663 a32.90279980964467,32.90279980964467 0 0,0 -0.2985308008411241,0.4813267052322333 l -10.060830318964378 -6.360529584986168" fill="#ff870c" stroke="none" /><path d="M 112.92097659922987 116.55440617244103 l 2.3221039911211134 2.9750887905761316 a24.77403236040609,24.77403236040609 0 0,0 -0.3384265792177632,0.25949106969452007 l -2.2705486834098565 -3.0146192020980234" fill="#ff1402" stroke="none" /><line stroke="#e1ed5e" stroke-width="0.3" x1="143.8653032363475" x2="146.44561519142675" y1="172.8068346515853" y2="177.08958963109032" /><path d="M 144.38136562736335 173.6633856474863 a86.0,86.0 0 0,1 -40.68145358897372,12.25698825130547" fill="none" id="id54" stroke="none" /><text fill="#e1ed5e" style="font-size:6.75px; font-family:Arial;" text-anchor="middle"><textPath startOffset="21.466115282336833" xlink:href="#id54">June</textPath></text><path d="M 109.2508944713604 118.85261126421891 l 11.001684110083344 22.420585860237853 a45.97438134517766,45.97438134517766 0 0,0 -0.7134508798533248,0.3424997786681642 l -10.614120562229786 -22.60663991540558" fill="#d0ff1d" stroke="none" /><path d="M 103.41894727170886 120.7198165907248 l 1.7396512999754095 10.542793732320503 a31.68535850253807,31.68535850253807 0 0,0 -0.5388987478958828,0.08416490140882607 l -1.5579166884710094 -10.571176941076434" fill="#ff770a" stroke="none" /><line stroke="#e1ed5e" stroke-width="0.3" x1="102.19456741930631" x2="102.32365962044197" y1="184.97166512339345" y2="189.96999836594603" /><path d="M 102.22038585953345 185.97133177190398 a86.0,86.0 0 0,1 -42.740103519485714,-10.115201625700543" fill="none" id="id55" stroke="none" /><text fill="#e1ed5e" style="font-size:6.75px; font-family:Arial;" text-anchor="middle"><textPath startOffset="22.20632615414155" xlink:href="#id55">July</textPath></text><path d="M 94.81253420990036 120.34920634021253 l -2.9412547800657296 11.537849663109647 a32.90684486040609,32.90684486040609 0 0,0 -0.5476788940776939,-0.14464697370192645 l 3.1394241169549124 -11.48551134010414" fill="#ff870c" stroke="none" /><line stroke="#e1ed5e" stroke-width="0.3" x1="58.666819895761336" x2="56.23545636021788" y1="174.27360380694188" y2="178.64263932499728" /><path d="M 58.180547188652646 175.14741091055294 a86.0,86.0 0 0,1 -31.652253787137756,-30.449443065178592" fill="none" id="id56" stroke="none" /><text fill="#e1ed5e" style="font-size:6.75px; font-family:Arial;" text-anchor="middle"><textPath startOffset="22.20632615414155" xlink:href="#id56">August</textPath></text><path d="M 84.19399662182784 113.82643327865904 l -12.855003778554781 11.245021767270526 a38.079275063451774,38.079275063451774 0 0,0 -0.4273174475627176,-0.4970667305818805 l 13.046663735688277 -11.022077937527117" fill="#ffcc13" stroke="none" /><path d="M 82.44556493220864 111.52570212397912 l -7.616018386803517 5.000443418318984 a30.110881979695428,30.110881979695428 0 0,0 -0.28074115481200573,-0.4357165067116162 l 7.700964404992567 -4.868605311685919" fill="#ff6108" stroke="none" /><line stroke="#e1ed5e" stroke-width="0.3" x1="26.63291911575756" x2="22.317208475507996" y1="142.92168965132927" y2="145.44649492493687" /><path d="M 25.769776987707644 143.4266507060508 a86.0,86.0 0 0,1 -11.730757126820373,-40.83630448921669" fill="none" id="id57" stroke="none" /><text fill="#e1ed5e" style="font-size:6.75px; font-family:Arial;" text-anchor="middle"><textPath startOffset="21.46611528233685" xlink:href="#id57">September</textPath></text><path d="M 81.18737489456691 109.33194174019688 l -3.581190039020898 1.776437717618945 a24.997580901015226,24.997580901015226 0 0,0 -0.18789460655882634,-0.38711854205530566 l 3.611237902194443 -1.7145302195983545" fill="#ff1702" stroke="none" /><path d="M 81.02952815118164 109.00673069616217 l -7.412060151862805 3.519070596851885 a29.205028553299492,29.205028553299492 0 0,0 -0.21170222198713415,-0.45598775224646687 l 7.471536990689766 -3.390962777326592" fill="#ff5407" stroke="none" /><path d="M 80.87730276802145 108.67885076344099 l -19.622995318325508 8.905911432548871 a42.549413071065985,42.549413071065985 0 0,0 -0.29695218214363006,-0.6695487776472946 l 19.773388585200415 -8.566814318408882" fill="#f9ff18" stroke="none" /><path d="M 80.32549172779594 107.34259656027581 l -46.89972436810082 17.503144173093112 a71.05940672588832,71.05940672588832 0 0,0 -0.4178148932385423,-1.1496471418361378 l 47.194063522344585 -16.69324923425086" fill="#3dffa9" stroke="none" /><path d="M 79.50377843672027 104.57218783832718 l -27.957616306932664 6.236636000080427 a49.644789022842644,49.644789022842644 0 0,0 -0.1788771754159867,-0.835654612265475 l 28.060827521073094 -5.754467568398788" fill="#a5ff21" stroke="none" /><path d="M 79.07016306316243 101.71520430193888 l -9.555332836039792 0.783061427391592 a30.58736516497462,30.58736516497462 0 0,0 -0.0384868309071076,-0.5251222297979302 l 9.567396225611235 -0.6184660610969008" fill="#ff6709" stroke="none" /><line stroke="#e1ed5e" stroke-width="0.3" x1="15.007084014347285" x2="10.007500721073583" y1="101.09737516637583" y2="101.16192664675087" /><path d="M 14.007167355692545 101.11028546245083 a86.0,86.0 0 0,1 10.666146001902534,-42.60595125391555" fill="none" id="id58" stroke="none" /><text fill="#e1ed5e" style="font-size:6.75px; font-family:Arial;" text-anchor="middle"><textPath startOffset="22.20632615414155" xlink:href="#id58">October</textPath></text><path d="M 79.00175016825051 100.2711162175752 l -22.204645156394683 0.2866924365429241 a43.206495875634516,43.206495875634516 0 0,0 -0.003200783940228643,-0.7437494637654223 l 22.206290237624415 0.0955665054261736" fill="#f1ff19" stroke="none" /><path d="M 79.03285615573316 98.82574320788736 l -9.04495540258849 -0.5065592335672212 a30.059129124365484,30.059129124365484 0 0,0 0.03337910124296354,-0.5163599222887213 l 9.034895710341114 0.6621782201089544" fill="#ff6008" stroke="none" /><path d="M 80.52162464483688 92.15188598940014 l -40.24488452287621 -16.215235424921445 a64.3887611040609,64.3887611040609 0 0,0 0.4230596495536095,-1.024472498184451 l 39.9598031864364 16.90558249355921" fill="#34ff5c" stroke="none" /><line stroke="#e1ed5e" stroke-width="0.3" x1="26.266209847984243" x2="21.928928074336255" y1="57.71137044288968" y2="55.22380399835378" /><path d="M 25.398753493254645 57.2138571539825 a86.0,86.0 0 0,1 29.58750427330803,-30.4925239686951" fill="none" id="id59" stroke="none" /><text fill="#e1ed5e" style="font-size:6.75px; font-family:Arial;" text-anchor="middle"><textPath startOffset="21.46611528233685" xlink:href="#id59">November</textPath></text><path d="M 84.31358615837235 86.03803664274999 l -29.46108154383649 -26.222344070027347 a60.44067258883248,60.44067258883248 0 0,0 0.6983958842439854,-0.7711861788443338 l 29.00534201897646 26.725583036141238" fill="#32ff2f" stroke="none" /><path d="M 88.09926311788651 82.69761687909137 l -7.509427539939495 -10.917894715411999 a34.25111040609137,34.25111040609137 0 0,0 0.48864151852516086,-0.32993293455692874 l 7.320381327007797 11.045539562267594" fill="#ff9a0e" stroke="none" /><line stroke="#e1ed5e" stroke-width="0.3" x1="56.76296977257108" x2="54.21961505331056" y1="26.818313649435495" y2="22.513508569990535" /><path d="M 56.25429882871898 25.957352633546506 a86.0,86.0 0 0,1 42.26535254187918,-11.944610805530505" fill="none" id="id60" stroke="none" /><text fill="#e1ed5e" style="font-size:6.75px; font-family:Arial;" text-anchor="middle"><textPath startOffset="22.20632615414155" xlink:href="#id60">December</textPath></text><path d="M 90.58718382345135 81.22770947309562 l -11.889418384167794 -23.71146019610815 a47.52530139593909,47.52530139593909 0 0,0 0.7344440879510381,-0.360388524301918 l 11.479503029206331 23.912603880544896" fill="#bdff1f" stroke="none" /><path d="M 94.98787191387505 79.60689891045804 l -15.03638425837485 -61.17930326862588 a84.0,84.0 0 0,0 1.4071052521498664,-0.3330163514365161 l 13.98105531926245 61.42906553220327" fill="#4dd2ff" stroke="none" /></svg>