<?xml version="1.0" encoding="utf-8" ?>
<svg baseProfile="full" height="200mm" version="1.1" viewBox="0,0,200,200" width="200mm" xmlns="http://www.w3.org/2000/svg" xmlns:ev="http://www.w3.org/2001/xml-events" xmlns:xlink="http://www.w3.org/1999/xlink"><defs /><rect fill="#1a1a1a" height="200" width="200" x="0" y="0" /><text alignment-baseline="middle" fill="#e1ed5e" style="dominant-baseline: central; font-size:9.0px; font-family:Arial;" text-anchor="middle" x="100.0" y="100.0">2024</text><line stroke="#e1ed5e" stroke-width="0.3" x1="100.0" x2="100.0" y1="15.0" y2="10.0" /><path d="M 100.0 14.0 a86.0,86.0 0 0,1 42.35913384403234,11.155469271406648" fill="none" id="id85" stroke="none" /><text fill="#e1ed5e" style="font-size:6.75px; font-family:Arial;" text-anchor="middle"><textPath startOffset="22.145653131862478" xlink:href="#id85">January</textPath></text><path d="M 109.3889696526874 81.21577127319529 l 1.9627100038952556 -3.9267347750989448 a25.38992899183596,25.38992899183596 0 0,0 0.3881911924716059,0.19821318884775646 l -2.0298284180804402 3.8924636345783545" fill="#ff3805" stroke="none" /><line stroke="#e1ed5e" stroke-width="0.3" x1="143.13028292997686" x2="145.6673583964461" y1="26.7553504044142" y2="22.446841604673864" /><path d="M 143.63769802327073 25.89364864446614 a86.0,86.0 0 0,1 29.32050498858742,28.57503671076993" fill="none" id="id86" stroke="none" /><text fill="#e1ed5e" style="font-size:6.75px; font-family:Arial;" text-anchor="middle"><textPath startOffset="20.669276256404974" xlink:href="#id86">February</textPath></text><line stroke="#e1ed5e" stroke-width="0.3" x1="172.87174338648825" x2="177.1583165268699" y1="56.24261187166439" y2="53.66864786411523" /><path d="M 173.72905801456457 55.72781907015455 a86.0,86.0 0 0,1 12.242430191666344,42.057860355516425" fill="none" id="id87" stroke="none" /><text fill="#e1ed5e" style="font-size:6.75px; font-family:Arial;" text-anchor="middle"><textPath startOffset="22.145653131862474" xlink:href="#id87">March</textPath></text><path d="M 118.00360718960297 89.18935116829356 l 2.0631785183896096 -1.2388794203592226 a23.406559331687866,23.406559331687866 0 0,0 0.2038892884368155,0.3462485862217328 l -2.084141516956193 1.2032796658439333" fill="#ff1c02" stroke="none" /><path d="M 118.36410011445183 89.81374322990088 l 2.6597018724334647 -1.4752917940803434 a24.041463451680272,24.041463451680272 0 0,0 0.19708808263140798,0.3626198735484146 l -2.684635304680214 1.4294170870573255" fill="#ff2503" stroke="none" /><path d="M 118.53625476483649 90.13048839642627 l 0.532839019634576 -0.2837067656782761 a21.6036612872603,21.6036612872603 0 0,0 0.1714836198659359,0.3288424520557461 l -0.5376307084754565 0.27451807051803173" fill="#ff0200" stroke="none" /><path d="M 118.70294669586156 90.45014215332178 l 1.6371807442605595 -0.8359561533940937 a22.838255553445986,22.838255553445986 0 0,0 0.17528914343795018,0.35069570841798314 l -1.6512898009102466 0.8077285888123602" fill="#ff1402" stroke="none" /><path d="M 118.8641267826498 90.77261029715802 l 1.767074781094317 -0.864364824679737 a22.967150180368332,22.967150180368332 0 0,0 0.17019833112452673,0.35564905246899925 l -1.7816523701787559 0.8339032701456341" fill="#ff1502" stroke="none" /><path d="M 119.0197475246899 91.09779779509293 l 4.849353117887975 -2.269742117364893 a26.354246440098727,26.354246440098727 0 0,0 0.18826411347872699,0.41139106421399046 l -4.887601696221753 2.186162070936218" fill="#ff4506" stroke="none" /><path d="M 119.16976305983485 91.42560881287824 l 1.8337896523864505 -0.8202307866497397 a23.008871084108602,23.008871084108602 0 0,0 0.15817625702784488,0.3619382309866069 l -1.8475997914312658 0.7886304858872834" fill="#ff1602" stroke="none" /><path d="M 119.31412917781788 91.75594674310238 l 3.668665115664753 -1.5659349855647862 a24.98889158913993,24.98889158913993 0 0,0 0.1650149255758742,0.3959757498077168 l -3.6950058857771104 1.5027267263157915" fill="#ff3204" stroke="none" /><path d="M 119.58574465831526 92.42381321644754 l 2.7680491649393115 -1.0707408814672317 a23.96792557433074,23.96792557433074 0 0,0 0.14514212884162003,0.3850067406746389 l -2.7860219775953725 1.023065860598435" fill="#ff2403" stroke="none" /><path d="M 119.71291397450082 92.76114493625339 l 2.099397267873325 -0.7709277564452742 a23.236470096829315,23.236470096829315 0 0,0 0.1342844790347716,0.3756175873796993 l -2.1123219169520397 0.7347752126846581" fill="#ff1902" stroke="none" /><path d="M 119.83427380445688 93.10060997987247 l 1.8395601701883368 -0.6398945181834471 a22.947677235618,22.947677235618 0 0,0 0.12622815532218334,0.3731711119367117 l -1.8502737470828852 0.6082217317725738" fill="#ff1502" stroke="none" /><path d="M 120.05942366710727 93.78553927170692 l 2.1462174174999595 -0.6649036421371658 a23.246852477691284,23.246852477691284 0 0,0 0.11482138511042542,0.38220304740098193 l -2.157315122614012 0.6279629911454604" fill="#ff1902" stroke="none" /><path d="M 120.26092885502905 94.47779374421319 l 9.835294199129471 -2.680653169583356 a31.19406265426239,31.19406265426239 0 0,0 0.13637824229036208,0.5178503994805845 l -9.879861922224565 2.511422265729973" fill="#ff870c" stroke="none" /><path d="M 120.35273937422433 94.82641323984039 l 2.840186717306794 -0.7219643570756247 a23.930510727169167,23.930510727169167 0 0,0 0.09778744367746729,0.3990061402510375 l -2.852161687500552 0.6731023922164923" fill="#ff2303" stroke="none" /><path d="M 120.43855184770803 95.1765574152323 l 2.0633352550718285 -0.48694150202633113 a23.120015188912095,23.120015188912095 0 0,0 0.08784409965223632,0.387057311391891 l -2.0713902162817313 0.4514498566954139" fill="#ff1802" stroke="none" /><path d="M 120.51834098615036 95.52812308129327 l 1.8710296099404182 -0.40778219508863073 a22.914951205619897,22.914951205619897 0 0,0 0.08046671229763556,0.38506234762194996 l -1.8777540330624205 0.3756033961812763" fill="#ff1502" stroke="none" /><path d="M 120.592083275326 95.88100663000786 l 1.9603256675364815 -0.39212003562958325 a22.99915853426998,22.99915853426998 0 0,0 0.07411611106688205,0.3878068115893883 l -1.9667680708855204 0.35841065900688046" fill="#ff1602" stroke="none" /><path d="M 120.65975698304385 96.23510406497455 l 1.779382859077288 -0.3242628312855905 a22.80868729827226,22.80868729827226 0 0,0 0.06688938904888829,0.38580022087056626 l -1.7846870656184106 0.2936695774944316" fill="#ff1302" stroke="none" /><path d="M 120.86939407059847 97.66154086499901 l 2.823513715043135 -0.3163806010566094 a23.841183975697742,23.841183975697742 0 0,0 0.04208265001826458,0.4071114646240882 l -2.828528757543066 0.2678646141495898" fill="#ff2203" stroke="none" /><path d="M 120.98066250479742 99.09900007780936 l 0.5975126971178312 -0.02565976615314153 a21.598063413707994,21.598063413707994 0 0,0 0.012727752143169482,0.3705546164526604 l -0.5978651362578489 0.015398885136361186" fill="#ff0200" stroke="none" /><line stroke="#e1ed5e" stroke-width="0.3" x1="184.99686870605535" x2="189.99668451229388" y1="99.2704041080226" y2="99.22748670261217" /><path d="M 185.99683186730306 99.26182062694052 a86.0,86.0 0 0,1 -10.086455211305974,41.156179273409016" fill="none" id="id88" stroke="none" /><text fill="#e1ed5e" style="font-size:6.75px; font-family:Arial;" text-anchor="middle"><textPath startOffset="21.40746469413373" xlink:href="#id88">April</textPath></text><path d="M 120.99303781780057 100.54070618675476 l 2.923177882613671 0.0752906930303178 a23.924147332447312,23.924147332447312 0 0,0 -0.01409851483679105,0.41046287664409564 l -2.9214546807800343 -0.12545983423852414" fill="#ff2303" stroke="none" /><path d="M 120.7213421655516 103.40968896794604 l 2.9506845035636418 0.48553401219425557 a23.990364913613064,23.990364913613064 0 0,0 -0.07035480960155995,0.40578784571870646 l -2.9419148764698475 -0.5361148908335501" fill="#ff2403" stroke="none" /><path d="M 120.51834098615036 104.47187691870673 l 20.121375171362303 4.385360066985401 a41.593715587621034,41.593715587621034 0 0,0 -0.15803460625484955,0.6963296345006229 l -20.043129703549788 -4.73012403542504" fill="#f4ff19" stroke="none" /><path d="M 120.26092885502905 105.52220625578681 l 0.4846928110373372 0.13210518098141935 a21.502373267514713,21.502373267514713 0 0,0 -0.10012068962251597,0.3552930067193991 l -0.4823536293402415 -0.14040611160382696" fill="#ff0000" stroke="none" /><path d="M 119.94978838288452 106.5578916946017 l 2.8612246334594573 0.9405413681606445 a24.011847351433453,24.011847351433453 0 0,0 -0.13208182971759808,0.3904764601569804 l -2.8446573821694945 -0.9895195027917855" fill="#ff2403" stroke="none" /><path d="M 118.8641267826498 109.22738970284198 l 4.637244328856922 2.2683085765206084 a26.16229200683501,26.16229200683501 0 0,0 -0.20080192839246042,0.4017383686641027 l -4.597622487252729 -2.347578801348457" fill="#ff4306" stroke="none" /><line stroke="#e1ed5e" stroke-width="0.3" x1="174.33088141563837" x2="178.70328620479359" y1="141.23008692659167" y2="143.65538615756765" /><path d="M 175.20536237346943 141.71514677278685 a86.0,86.0 0 0,1 -30.301960400862466,31.631185727798858" fill="none" id="id89" stroke="none" /><text fill="#e1ed5e" style="font-size:6.75px; font-family:Arial;" text-anchor="middle"><textPath startOffset="22.145653131862474" xlink:href="#id89">May</textPath></text><path d="M 118.00360718960297 110.81064883170644 l 54.010821568808936 32.43194649511934 a84.0,84.0 0 0,0 -0.7529281421783813,1.2298515355017718 l -53.44612546217515 -33.35433514674567" fill="#4dd2ff" stroke="none" /><path d="M 114.39649973595853 115.28858382429668 l 1.8178457756589181 1.9304892182498667 a23.651669641161952,23.651669641161952 0 0,0 -0.29797750694136743,0.27580353187905293 l -1.7844384974035836 -1.9614104962612993" fill="#ff1f03" stroke="none" /><path d="M 112.45986205192187 116.90419585922612 l 8.992476662479852 12.200021647802473 a36.156027340041774,36.156027340041774 0 0,0 -0.5027736463204854,0.3639693471380366 l -8.781722005785399 -12.352591766313585" fill="#ffc712" stroke="none" /><path d="M 111.8722381534696 117.32195027204791 l 1.7284013193891483 2.521789178887996 a24.057252325802164,24.057252325802164 0 0,0 -0.342648260420687,0.23054904151703645 l -1.6848567708714581 -2.5510878944621536" fill="#ff2503" stroke="none" /><path d="M 111.5731344415666 117.5232005979908 l 1.3402863037006392 2.0293642899482904 a23.43201291057528,23.43201291057528 0 0,0 -0.33754859859944136,0.218794923465688 l -1.305252072844188 -2.052073055117873" fill="#ff1c02" stroke="none" /><path d="M 111.27062007382361 117.71928675628689 l 1.6656722513659752 2.618713439954574 a24.10356635655971,24.10356635655971 0 0,0 -0.3510350102825408,0.21907180885341185 l -1.6204731122937195 -2.646921045649534" fill="#ff2603" stroke="none" /><line stroke="#e1ed5e" stroke-width="0.3" x1="143.1302829299769" x2="145.66735839644613" y1="173.24464959558577" y2="177.55315839532614" /><path d="M 143.63769802327073 174.10635135553383 a86.0,86.0 0 0,1 -40.68552437913181,11.842963189579606" fill="none" id="id90" stroke="none" /><text fill="#e1ed5e" style="font-size:6.75px; font-family:Arial;" text-anchor="middle"><textPath startOffset="21.407464694133747" xlink:href="#id90">June</textPath></text><path d="M 110.65571695917076 118.09573695890943 l 3.9026993273700303 6.627636669442532 a28.691334725650275,28.691334725650275 0 0,0 -0.4265548004041201,0.24627152883744677 l -3.7883520591055118 -6.693655095556151" fill="#ff6509" stroke="none" /><path d="M 110.02825361518725 118.45085714620011 l 2.3569727957684834 4.336564472835397 a25.935697740649324,25.935697740649324 0 0,0 -0.3930013853073345,0.20925110178509773 l -2.2821825946745955 -4.376386042343063" fill="#ff3f05" stroke="none" /><path d="M 109.3889696526874 118.78422872680471 l 1.9726141457958326 3.946549693421736 a25.412081260679706,25.412081260679706 0 0,0 -0.39187819339002633,0.19168726165375685 l -1.904575703143737 -3.9798307051727164" fill="#ff3805" stroke="none" /><path d="M 109.06512990194946 118.94263497670748 l 1.0925452212262556 2.2829993111057867 a23.530956521739128,23.530956521739128 0 0,0 -0.36586299417841484,0.17124235478105254 l -1.0531935131763346 -2.301417897457373" fill="#ff1d03" stroke="none" /><path d="M 108.73861861582097 119.09545874513695 l 3.3757779791702442 7.376684115413951 a29.112419213973798,29.112419213973798 0 0,0 -0.45621461779843336,0.20405899572556896 l -3.2486499585161837 -7.43354686204937" fill="#ff6b09" stroke="none" /><path d="M 107.06938296918513 119.77432235084164 l 2.6106276998898954 7.302390307708796 a28.755016517941904,28.755016517941904 0 0,0 -0.46623414995758444,0.16218043942386245 l -2.4848877778872893 -7.346129179701249" fill="#ff6609" stroke="none" /><path d="M 104.9986988182912 120.39639698878246 l 0.35505472039273944 1.4487444219227996 a22.491617998860832,22.491617998860832 0 0,0 -0.3757897888650319,0.08868536694960234 l -0.3301327777878284 -1.454625932518627" fill="#ff0f01" stroke="none" /><path d="M 104.64783097203109 120.47920084513623 l 0.17472385275529814 0.7698655339542395 a21.789443706094552,21.789443706094552 0 0,0 -0.36547909496419645,0.07965446768544275 l -0.16148234117196583 -0.7727514597734011" fill="#ff0500" stroke="none" /><path d="M 103.94208987418118 120.62667999033965 l 0.6336473500209365 3.315510689193361 a24.37551775204101,24.37551775204101 0 0,0 -0.41167378563612195,0.07502067731823205 l -0.5766388308337574 -3.3258995404429563" fill="#ff2904" stroke="none" /><path d="M 103.2317021107853 120.74984581791261 l 1.536262951311737 9.863910188103247 a30.982826656540727,30.982826656540727 0 0,0 -0.5262284012236691,0.07733745330964954 l -1.3667094444803825 -9.88882871471178" fill="#ff840c" stroke="none" /><path d="M 102.875027216393 120.80226474461374 l 0.3338677893743326 2.415701007859418 a23.438663375735715,23.438663375735715 0 0,0 -0.3990400943839021,0.05166372927900356 l -0.29234987309965516 -2.4210763333388163" fill="#ff1c02" stroke="none" /><path d="M 102.51750503828377 120.84855314841334 l 0.4744419158953141 3.929059663817672 a24.957600911334726,24.957600911334726 0 0,0 -0.42578154231935267,0.047709709912193504 l -0.4069244719751622 -3.9366251342368366" fill="#ff3204" stroke="none" /><path d="M 101.44090949804482 120.95050786540614 l 0.24951836105956562 3.627942208053296 a24.63651262578318,24.63651262578318 0 0,0 -0.4221708672451385,0.025396751030724578 l -0.18720314168196198 -3.6316909369087123" fill="#ff2d04" stroke="none" /><line stroke="#e1ed5e" stroke-width="0.3" x1="101.45913802915013" x2="101.54496967792366" y1="184.9874750549273" y2="189.98673829345242" /><path d="M 101.47630435890484 185.9873277026323 a86.0,86.0 0 0,1 -42.54439059252881,-10.42667462771756" fill="none" id="id91" stroke="none" /><text fill="#e1ed5e" style="font-size:6.75px; font-family:Arial;" text-anchor="middle"><textPath startOffset="22.145653131862474" xlink:href="#id91">July</textPath></text><path d="M 100.36049292484886 120.99690560180557 l 0.04207315868989732 2.450550566982552 a23.450911714448452,23.450911714448452 0 0,0 -0.40256608353874923,0.0034555456603353233 l -3.0015011860920483e-16 -2.450911714448452" fill="#ff1c02" stroke="none" /><path d="M 99.63950707515114 120.99690560180557 l -0.057976461147876475 3.376838206628107 a24.377335864818683,24.377335864818683 0 0,0 -0.41834606114792383,-0.010775110559527281 l 0.11593583636654424 -3.3753453787185324" fill="#ff2904" stroke="none" /><path d="M 99.27912038922189 120.98762331915562 l -0.08276743597239837 2.4096835911422696 a23.411104613632048,23.411104613632048 0 0,0 -0.40152746655757704,-0.017243317080339157 l 0.12412066313081416 -2.407907705636102" fill="#ff1c02" stroke="none" /><path d="M 97.84075906011543 120.88869738790638 l -0.049194781239063574 0.475914882579981 a21.478450730966394,21.478450730966394 0 0,0 -0.3664265612448252,-0.04105886048014961 l 0.05735724408468803 -0.4750002615928605" fill="#ff0000" stroke="none" /><path d="M 94.30408787586889 120.21278271476187 l -0.7846538006610145 2.7844595270143038 a23.892904499715208,23.892904499715208 0 0,0 -0.39382331750947014,-0.11463622808448086 l 0.8323371305520915 -2.770579604627307" fill="#ff2303" stroke="none" /><path d="M 92.93061703081489 119.77432235084164 l -1.1526409481073012 3.224141875182756 a24.423984811087905,24.423984811087905 0 0,0 -0.39358768666224636,-0.14453085029989635 l 1.2078177864236666 -3.20388017587414" fill="#ff2a04" stroke="none" /><line stroke="#e1ed5e" stroke-width="0.3" x1="58.13341422392154" x2="55.67067388415222" y1="173.97424548756322" y2="178.32567169271397" /><path d="M 57.64086615596768 174.84453072859336 a86.0,86.0 0 0,1 -31.369924170532247,-30.572349798747897" fill="none" id="id92" stroke="none" /><text fill="#e1ed5e" style="font-size:6.75px; font-family:Arial;" text-anchor="middle"><textPath startOffset="22.145653131862474" xlink:href="#id92">August</textPath></text><path d="M 88.4268655584334 117.5232005979908 l -1.448577619025902 2.1933311436166725 a23.628512625783177,23.628512625783177 0 0,0 -0.33654170633897695,-0.22644027940401393 l 1.4860156134618847 -2.1681411901555374" fill="#ff1f03" stroke="none" /><path d="M 88.1277618465304 117.32195027204791 l -2.7407355934694673 3.998815138747498 a25.847902031516995,25.847902031516995 0 0,0 -0.3638460344464774,-0.25399278975069856 l 2.8089767190897104 -3.9511775331916703" fill="#ff3e05" stroke="none" /><path d="M 87.54013794807813 116.9041958592261 l -2.1107152986061446 2.863590677169635 a24.557424719954433,24.557424719954433 0 0,0 -0.33719333419274866,-0.25303616422830794 l 2.15956162170966 -2.8269354856773123" fill="#ff2c04" stroke="none" /><path d="M 86.13680546590413 115.77377054828092 l -1.7325966269249942 1.971376913064629 a23.624541484716158,23.624541484716158 0 0,0 -0.30232097724787416,-0.2703372820587033 l 1.7661826309962392 -1.9413441011225436" fill="#ff1f03" stroke="none" /><path d="M 85.60350026404147 115.28858382429668 l -2.1609345637465402 2.294837621824143 a24.1521291057528,24.1521291057528 0 0,0 -0.299403034817172,-0.2868213345842013 l 2.2000100844290267 -2.2574041569343595" fill="#ff2603" stroke="none" /><path d="M 84.58840730492382 114.26474011684316 l -1.8086953893664004 1.6741014501432485 a23.464547560280995,23.464547560280995 0 0,0 -0.27107396127758226,-0.29795776861270445 l 1.8371670514858625 -1.6428061059728698" fill="#ff1d02" stroke="none" /><path d="M 84.3458050057657 113.99807769240083 l -2.2359076629205457 1.9993624194743882 a23.999455477501424,23.999455477501424 0 0,0 -0.2719811845077949,-0.3094646610724632 l 2.269899911386933 -1.9606854805906249" fill="#ff2403" stroke="none" /><path d="M 84.1078160697243 113.72728997021213 l -4.370818264233679 3.775408715597091 a26.77561799886083,26.77561799886083 0 0,0 -0.29747129736147854,-0.3504204403108832 l 4.43498412510227 -3.6998214928366533" fill="#ff4b07" stroke="none" /><path d="M 82.78059297857968 112.02048342749411 l -1.5787976383436906 1.1021233671675996 a22.925429276628062,22.925429276628062 0 0,0 -0.2224970368805342,-0.32462982621320535 l 1.59748441203955 -1.0748588058843431" fill="#ff1502" stroke="none" /><path d="M 82.576782715395 111.72311816256416 l -1.412620338613905 0.9504740070621029 a22.70261477121701,22.70261477121701 0 0,0 -0.21478355845895894,-0.32520968273804435 l 1.4287283359935907 -0.9260844459849976" fill="#ff1202" stroke="none" /><line stroke="#e1ed5e" stroke-width="0.3" x1="26.387840678322732" x2="22.057713659400548" y1="142.50000000000003" y2="145.00000000000006" /><path d="M 25.521815274538298 143.00000000000003 a86.0,86.0 0 0,1 -11.493303480769221,-40.785679425670985" fill="none" id="id93" stroke="none" /><text fill="#e1ed5e" style="font-size:6.75px; font-family:Arial;" text-anchor="middle"><textPath startOffset="21.40746469413373" xlink:href="#id93">September</textPath></text><path d="M 81.63589988554817 110.18625677009913 l -2.6789480908940235 1.4859673470271733 a24.063472185304725,24.063472185304725 0 0,0 -0.1972685067191607,-0.3629518335482852 l 2.704061947228514 -1.439760680004301" fill="#ff2503" stroke="none" /><path d="M 81.4637452351635 109.86951160357371 l -2.672050218855448 1.4227162377134146 a24.027205619897476,24.027205619897476 0 0,0 -0.1907210143769839,-0.36573269257623003 l 2.6960793022073815 -1.3766373020326819" fill="#ff2503" stroke="none" /><path d="M 81.1358732173502 109.22738970284198 l -2.929566297062677 1.432997678332602 a24.261263717486237,24.261263717486237 0 0,0 -0.17978837440692727,-0.37568855452514316 l 2.953733929429516 -1.382496621742354" fill="#ff2803" stroke="none" /><path d="M 80.9802524753101 108.90220220490708 l -3.3368877724824273 1.5618319668628124 a24.68430985380672,24.68430985380672 0 0,0 -0.17633475963821085,-0.38532327316687454 l 3.3632069969756944 -1.504319711481249" fill="#ff2e04" stroke="none" /><path d="M 80.5471966667186 107.91128576633889 l -2.8295685042947025 1.1507608774622526 a24.054620846781848,24.054620846781848 0 0,0 -0.15227872231231737,-0.3838418560509506 l 2.8489059015731444 -1.1020180041977368" fill="#ff2503" stroke="none" /><path d="M 80.28708602549918 107.23885506374661 l -4.615314522531204 1.69480742144081 a25.916655401556863,25.916655401556863 0 0,0 -0.1497733758363172,-0.4189427883976251 l 4.6437280684114635 -1.6153296766622633" fill="#ff3f05" stroke="none" /><path d="M 80.05021161711548 106.5578916946017 l -3.258659870869618 1.0711862247642463 a24.43020467059047,24.43020467059047 0 0,0 -0.12754344917523916,-0.39952803795895053 l 3.276568035822112 -1.0150891531139041" fill="#ff2a04" stroke="none" /><path d="M 79.94057633289273 106.21446072829308 l -2.8680367546519454 0.8885251179131173 a24.00251756217961,24.00251756217961 0 0,0 -0.11855378336794174,-0.394626987303518 l 2.8828668580235166 -0.8391605270188758" fill="#ff2403" stroke="none" /><path d="M 79.64726062577567 105.17358676015961 l -4.765578274466184 1.2113913617204242 a25.91713385228783,25.91713385228783 0 0,0 -0.10590539816538669,-0.4321301648205157 l 4.785671199147863 -1.129405372291809" fill="#ff3f05" stroke="none" /><path d="M 79.48165901384964 104.47187691870673 l -4.870455000530994 1.061492998638419 a25.984786785646477,25.984786785646477 0 0,0 -0.09124655530068165,-0.43664779873861603 l 4.887959266656042 -0.9777287486143937" fill="#ff4006" stroke="none" /><path d="M 79.22317932658666 103.0534771498775 l -5.018625846505296 0.7375651735637264 a26.072534649705716,26.072534649705716 0 0,0 -0.06127726439367609,-0.4433717599175379 l 5.030547627454185 -0.651305105446103" fill="#ff4106" stroke="none" /><path d="M 79.17382384314188 102.69636545807758 l -2.5209202499435333 0.32638359693686103 a23.54196088855136,23.54196088855136 0 0,0 -0.0484492588076114,-0.4012293647445029 l 2.526151595010806 -0.28306055526895885" fill="#ff1e03" stroke="none" /><path d="M 79.0935383218832 101.97986365728391 l -4.8558879261149706 0.4598576352507291 a25.877613821910007,25.877613821910007 0 0,0 -0.03808491887914802,-0.4426044870938442 l 4.863066467691859 -0.37643210078122286" fill="#ff3f05" stroke="none" /><path d="M 79.01933749520258 100.90099992219065 l -2.4050603074229207 0.10328363793833369 a23.407277007784316,23.407277007784316 0 0,0 -0.01379392283441957,-0.40159501283414295 l 2.406478917254188 -0.061982360540070856" fill="#ff1c02" stroke="none" /><line stroke="#e1ed5e" stroke-width="0.3" x1="15.003131293944662" x2="10.003315487706104" y1="100.72959589197737" y2="100.7725132973878" /><path d="M 14.003168132696942 100.73817937305945 a86.0,86.0 0 0,1 10.791469493833604,-42.45332614584628" fill="none" id="id94" stroke="none" /><text fill="#e1ed5e" style="font-size:6.75px; font-family:Arial;" text-anchor="middle"><textPath startOffset="22.145653131862435" xlink:href="#id94">October</textPath></text><path d="M 79.00077361379809 100.18025310272382 l -3.1884217445733514 0.027368765957448932 a24.188539206379343,24.188539206379343 0 0,0 0.0,-0.4152437373625318 l 3.1884217445733514 0.02736876595744776" fill="#ff2703" stroke="none" /><path d="M 79.13060592940154 97.66154086499901 l -2.970958539830508 -0.3329021012145098 a23.989551547370418,23.989551547370418 0 0,0 0.04937039854492834,-0.40885772317023983 l 2.964806055025911 0.3838535013081859" fill="#ff2403" stroke="none" /><path d="M 79.17382384314186 97.30363454192245 l -2.3843144527407345 -0.3086972415456172 a23.40421492310613,23.40421492310613 0 0,0 0.05500601629408198,-0.3979961326876033 l 2.3786639198914448 0.3495816824332875" fill="#ff1c02" stroke="none" /><path d="M 79.2786578344484 96.59031103205396 l -2.407153509027101 -0.3960961938810691 a23.43952458705145,23.43952458705145 0 0,0 0.06873939998042022,-0.39647059230236875 l 2.399999291554446 0.4373598191040305" fill="#ff1c02" stroke="none" /><path d="M 79.48165901384962 95.52812308129327 l -3.763189176499194 -0.8201695658763422 a24.851528384279476,24.851528384279476 0 0,0 0.09442295422652257,-0.41604495852632656 l 3.74855536071501 0.884648858341677" fill="#ff3004" stroke="none" /><path d="M 79.56144815229197 95.17655741523228 l -2.3551637823463727 -0.555812239855242 a23.419860262008733,23.419860262008733 0 0,0 0.09570076846312504,-0.39049179329686484 l 2.3452754873669495 0.5961598577602245" fill="#ff1c02" stroke="none" /><path d="M 79.73907114497095 94.47779374421319 l -1.4038550256445257 -0.3826269299054226 a22.455064363014998,22.455064363014998 0 0,0 0.10455666923704388,-0.3710347334387637 l 1.3970798643328999 0.4066695872471994" fill="#ff0e01" stroke="none" /><path d="M 79.94057633289273 93.78553927170692 l -3.2188919560775364 -0.9972209561765053 a24.36982418834251,24.36982418834251 0 0,0 0.12722821911177162,-0.3985405842749221 l 3.2012990211885075 1.052330574142819" fill="#ff2904" stroke="none" /><path d="M 80.16572619554312 93.10060997987247 l -1.461191365408271 -0.5082782068748589 a22.547070438579837,22.547070438579837 0 0,0 0.13030041116348967,-0.36447344047214003 l 1.452250784200838 0.5332866037279204" fill="#ff0f01" stroke="none" /><path d="M 80.41425534168474 92.42381321644754 l -1.3995533597039684 -0.5413773053639778 a22.500612872603,22.500612872603 0 0,0 0.1424410137789506,-0.3590444040800109 l 1.3900536709588862 0.5653227266575716" fill="#ff0f01" stroke="none" /><path d="M 80.83023694016515 91.42560881287825 l -13.829045961696036 -6.185556360303262 a36.14937687488134,36.14937687488134 0 0,0 0.2582365770019963,-0.5642935250314416 l 13.720824919838991 6.422038867549374" fill="#ffc712" stroke="none" /><path d="M 81.46374523516351 90.13048839642627 l -2.8331224246798326 -1.5084781148868283 a24.20968672868806,24.20968672868806 0 0,0 0.19846715022377043,-0.3651572025907424 l 2.8068099248407115 1.5568901509521904" fill="#ff2703" stroke="none" /><line stroke="#e1ed5e" stroke-width="0.3" x1="26.387840678322718" x2="22.05771365940052" y1="57.49999999999999" y2="54.99999999999999" /><path d="M 25.521815274538284 56.99999999999999 a86.0,86.0 0 0,1 29.574782752854787,-30.34633250058573" fill="none" id="id95" stroke="none" /><text fill="#e1ed5e" style="font-size:6.75px; font-family:Arial;" text-anchor="middle"><textPath startOffset="21.40746469413373" xlink:href="#id95">November</textPath></text><path d="M 81.81346652052679 89.5 l -2.087456320856003 -1.2051934687677994 a23.4103869375356,23.4103869375356 0 0,0 0.20392262985284113,-0.346305207235278 l 2.0664599808733826 1.2408498442966502" fill="#ff1c02" stroke="none" /><path d="M 82.37810715431573 88.57770195909679 l -1.509145996225006 -0.9782102017683931 a22.79844845262958,22.79844845262958 0 0,0 0.215690216098239,-0.32658247796193696 l 1.492131341206038 1.003972558069391" fill="#ff1302" stroke="none" /><path d="M 82.576782715395 88.27688183743585 l -2.626284538939358 -1.767081445153395 a24.165430036073666,24.165430036073666 0 0,0 0.2345315550296812,-0.3421885478487422 l 2.595563247094364 1.8119047280721718" fill="#ff2603" stroke="none" /><path d="M 83.42222388311158 87.10902102172516 l -7.994082510274047 -6.216246911764893 a31.12655325612303,31.12655325612303 0 0,0 0.33162166008656796,-0.41899313429445084 l 7.886194419545918 6.352559989974027" fill="#ff860c" stroke="none" /><path d="M 84.10781606972428 86.27271002978789 l -2.3402153574304405 -2.0214222881596053 a24.0923706094551,24.0923706094551 0 0,0 0.2730341737171188,-0.31066276949811067 l 2.305170119754729 2.0612973354690163" fill="#ff2503" stroke="none" /><path d="M 84.58840730492382 85.73525988315684 l -2.252591394343397 -2.0849649653673965 a24.069404974368712,24.069404974368712 0 0,0 0.28326728689782815,-0.3008200423608159 l 2.216468273709297 2.1233264676727233" fill="#ff2503" stroke="none" /><path d="M 85.86807049272753 84.46653392183569 l -3.0958343329787663 -3.402864242295777 a25.600399468388076,25.600399468388076 0 0,0 0.32760584116417724,-0.29294716328686954 l 3.036963464991197 3.4555069354660475" fill="#ff3b05" stroke="none" /><path d="M 87.54013794807813 83.09580414077388 l -1.7992731571860543 -2.44105959813815 a24.032516423011202,24.032516423011202 0 0,0 0.33418815066755975,-0.2419264492280176 l 1.7571039961445267 2.471586818739247" fill="#ff2503" stroke="none" /><path d="M 88.12776184653039 82.6780497279521 l -0.89010003626252 -1.2986825538688753 a22.574437820391115,22.574437820391115 0 0,0 0.32152848315250915,-0.2163387128252965 l 0.8676752650130215 1.3137709407512814" fill="#ff1001" stroke="none" /><path d="M 88.72937992617638 82.28071324371311 l -0.7927651874824146 -1.2463585495200566 a22.47712094171255,22.47712094171255 0 0,0 0.32734808883371275,-0.204289417992209 l 0.7712529698590034 1.2597837643538017" fill="#ff0e01" stroke="none" /><line stroke="#e1ed5e" stroke-width="0.3" x1="56.869717070023135" x2="54.33264160355391" y1="26.7553504044142" y2="22.446841604673864" /><path d="M 56.362301976729285 25.89364864446614 a86.0,86.0 0 0,1 42.16139366436587,-11.88097634709845" fill="none" id="id96" stroke="none" /><text fill="#e1ed5e" style="font-size:6.75px; font-family:Arial;" text-anchor="middle"><textPath startOffset="22.145653131862474" xlink:href="#id96">December</textPath></text><path d="M 89.65649057296885 81.72400993836675 l -1.337134744385224 -2.3625889715520896 a23.714729447503323,23.714729447503323 0 0,0 0.3560098230776686,-0.19747264760841074 l 1.2963807331514527 2.3851945345936465" fill="#ff2003" stroke="none" /><path d="M 89.97174638481275 81.54914285379989 l -1.2377305861299543 -2.2772848699778203 a23.59191114486425,23.59191114486425 0 0,0 0.3574861896793077,-0.19034126051451944 l 1.1984555806640849 2.2981965982149153" fill="#ff1e03" stroke="none" /><path d="M 90.28995756902619 81.37971332152246 l -0.6736376503280489 -1.2917890169576023 a22.45688247579267,22.45688247579267 0 0,0 0.3433473165787771,-0.17531558629161387 l 0.6513631120356894 1.30316255492205" fill="#ff0e01" stroke="none" /><path d="M 90.61103034731259 81.2157712731953 l -0.6832788349636786 -1.3670153802732403 a22.52826732485286,22.52826732485286 0 0,0 0.3474070702399135,-0.16993420684463842 l 0.659711515461712 1.3785433372150928" fill="#ff0f01" stroke="none" /><path d="M 90.93487009805054 81.0573650232925 l -1.6731541412268711 -3.496248647271048 a24.87597721663186,24.87597721663186 0 0,0 0.38677558641453197,-0.181030503886238 l 1.6128898409408166 3.5244553827278287" fill="#ff3104" stroke="none" /><path d="M 92.25597844496254 80.48000691201159 l -0.8867617771547743 -2.235218954096746 a23.404693373837098,23.404693373837098 0 0,0 0.37472890952942534,-0.14495319229981493 l 0.8482606051318196 2.250112034534602" fill="#ff1c02" stroke="none" /><path d="M 92.592206182469 80.34994680014964 l -0.5869301791497046 -1.5569020316946933 a22.663860262008733,22.663860262008733 0 0,0 0.3652236275266045,-0.1341151749021329 l 0.560117399968973 1.5667480556055482" fill="#ff1101" stroke="none" /><path d="M 93.61358852112211 79.99465700312896 l -0.6574014589569362 -2.059300706910871 a23.161688247579267,23.161688247579267 0 0,0 0.37980687174101535,-0.11766513973383591 l 0.6219539543443048 2.0702824344513493" fill="#ff1802" stroke="none" /><path d="M 94.6519064749342 79.69241777938228 l -0.415622107780508 -1.5781848404297025 a22.63199544332637,22.63199544332637 0 0,0 0.3765475910307427,-0.09571692516211502 l 0.38846922352438723 1.5850869974270807" fill="#ff1101" stroke="none" /><path d="M 95.35216902796891 79.52079915486377 l -0.4286134947953611 -1.8885501425655615 a22.93657717865958,22.93657717865958 0 0,0 0.3847202150685776,-0.08384798025758218 l 0.3961308631076651 1.895629580956858" fill="#ff1502" stroke="none" /><path d="M 96.76829788921471 79.25015418208739 l -0.41197667333534066 -2.645185774937533 a23.67707537497627,23.67707537497627 0 0,0 0.402143731375645,-0.05910127993226962 l 0.36650783635201073 2.6518681281686876" fill="#ff2003" stroke="none" /><path d="M 97.12497278360702 79.19773525538626 l -0.3897285801882279 -2.8198818631669518 a23.846686159103854,23.846686159103854 0 0,0 0.4059866274423555,-0.05256309705785991 l 0.3412641308550784 2.826156556425206" fill="#ff2203" stroke="none" /><path d="M 97.48249496171623 79.15144685158666 l -0.3394975277372699 -2.811526548368145 a23.831949876590087,23.831949876590087 0 0,0 0.4065777159824519,-0.04555788111579518 l 0.2911839101540187 2.816940189990911" fill="#ff2203" stroke="none" /><path d="M 97.84075906011542 79.11130261209362 l -0.15492912455618377 -1.4987987397091374 a22.506784887032467,22.506784887032467 0 0,0 0.3846521391788326,-0.03642695750155695 l 0.12917742199233556 1.5012374527158778" fill="#ff0f01" stroke="none" /><path d="M 99.63950707515114 79.00309439819443 l -0.04331089441288354 -2.5226424676666337 a23.52301423960509,23.52301423960509 0 0,0 0.4038038192617351,-0.0034661701328905087 l 6.179602625471132e-16 2.5230142396050894" fill="#ff1d03" stroke="none" /></svg>