<?xml version="1.0" encoding="utf-8" ?>
<svg baseProfile="full" height="200mm" version="1.1" viewBox="0,0,200,200" width="200mm" xmlns="http://www.w3.org/2000/svg" xmlns:ev="http://www.w3.org/2001/xml-events" xmlns:xlink="http://www.w3.org/1999/xlink"><defs /><rect fill="#1a1a1a" height="200" width="200" x="0" y="0" /><text alignment-baseline="middle" fill="#e1ed5e" style="dominant-baseline: central; font-size:9.0px; font-family:Arial;" text-anchor="middle" x="100.0" y="100.0">2022</text><line stroke="#e1ed5e" stroke-width="0.3" x1="100.0" x2="100.0" y1="15.0" y2="10.0" /><path d="M 100.0 14.0 a86.0,86.0 0 0,1 42.46469731375804,11.215312516191453" fill="none" id="id61" stroke="none" /><text fill="#e1ed5e" style="font-size:6.75px; font-family:Arial;" text-anchor="middle"><textPath startOffset="22.20632615414155" xlink:href="#id61">January</textPath></text><path d="M 100.36148047927253 79.00311137660856 l 0.501607674260145 -29.136291094541264 a50.140608590156816,50.140608590156816 0 0,0 0.8628324018858136,0.022284415337167678 l -1.0030667113408263 29.123339887061736" fill="#99ff23" stroke="none" /><path d="M 101.80526077348638 79.07773832637324 l 0.6033621428206795 -6.9927297050138275 a28.018711748089668,28.018711748089668 0 0,0 0.48015382521137384,0.0455963913036735 l -0.7236410951222975 6.981307769194975" fill="#ff5007" stroke="none" /><line stroke="#e1ed5e" stroke-width="0.3" x1="143.23703022742887" x2="145.7803849466894" y1="26.81831364943548" y2="22.513508569990506" /><path d="M 143.74570117128098 25.957352633546492 a86.0,86.0 0 0,1 28.547481713284135,27.462654790039103" fill="none" id="id62" stroke="none" /><text fill="#e1ed5e" style="font-size:6.75px; font-family:Arial;" text-anchor="middle"><textPath startOffset="19.985693538727396" xlink:href="#id62">February</textPath></text><path d="M 115.68641384162765 86.03803664274999 l 10.256875526560423 -9.129309076474785 a34.73127014449716,34.73127014449716 0 0,0 0.39363451822219464,0.44999230093479403 l -10.412501908360465 8.951401219337043" fill="#ffab0f" stroke="none" /><line stroke="#e1ed5e" stroke-width="0.3" x1="172.23445277983987" x2="176.4835382374775" y1="55.19839476539836" y2="52.563006222186495" /><path d="M 173.08426987136738 54.67131705675599 a86.0,86.0 0 0,1 12.851231095245387,41.99856678651699" fill="none" id="id63" stroke="none" /><text fill="#e1ed5e" style="font-size:6.75px; font-family:Arial;" text-anchor="middle"><textPath startOffset="22.20632615414155" xlink:href="#id63">March</textPath></text><path d="M 119.7369772167798 92.82701384747503 l 10.34604511811217 -3.760050870531696 a32.008116647955674,32.008116647955674 0 0,0 0.1837371357614906,0.5194496251065279 l -10.409235334683473 3.5814036189985536" fill="#ff870c" stroke="none" /><path d="M 120.83666639777658 97.38593545837742 l 13.195624716543621 -1.6554574526257197 a34.29906203599754,34.29906203599754 0 0,0 0.06845055153507913,0.586442523505202 l -13.222165621082288 1.428071190795665" fill="#ffa50f" stroke="none" /><line stroke="#e1ed5e" stroke-width="0.3" x1="184.98032266829074" x2="189.97916517819016" y1="98.17113171792111" y2="98.06355123074" /><path d="M 185.9800911702706 98.14961562048488 a86.0,86.0 0 0,1 -9.607161424134198,41.387399972396054" fill="none" id="id64" stroke="none" /><text fill="#e1ed5e" style="font-size:6.75px; font-family:Arial;" text-anchor="middle"><textPath startOffset="21.466115282336823" xlink:href="#id64">April</textPath></text><path d="M 119.9155931802556 106.66101706037122 l 10.839286795465634 3.6253338584176915 a32.42948746967008,32.42948746967008 0 0,0 -0.18161928924975274,0.5278706686646061 l -10.77527667527265 -3.811377230171598" fill="#ff8d0d" stroke="none" /><path d="M 119.26925614724726 108.34839909993367 l 5.972096419680997 2.587408875246301 a27.50850369391229,27.50850369391229 0 0,0 -0.1919817362878837,0.4328681336309696 l -5.92667359866184 -2.6898253453699583" fill="#ff4906" stroke="none" /><path d="M 118.81262510543309 109.33194174019688 l 12.87700445302989 6.387596343969366 a35.374234961793356,35.374234961793356 0 0,0 -0.27528116822615895,0.5431558608414081 l -12.765144615017464 -6.608306416513468" fill="#ffb410" stroke="none" /><line stroke="#e1ed5e" stroke-width="0.3" x1="174.80103733775053" x2="179.2010983576182" y1="140.37084112569926" y2="142.7455964860345" /><path d="M 175.68104954172406 140.8457921977663 a86.0,86.0 0 0,1 -30.038265399797805,32.042727171017184" fill="none" id="id65" stroke="none" /><text fill="#e1ed5e" style="font-size:6.75px; font-family:Arial;" text-anchor="middle"><textPath startOffset="22.206326154141568" xlink:href="#id65">May</textPath></text><path d="M 117.75023020441432 111.22182372390056 l 7.311532145141207 4.6224034246047285 a29.650151196900012,29.650151196900012 0 0,0 -0.2764454954518168,0.42904954799052347 l -7.230881786312341 -4.747574572516705" fill="#ff6709" stroke="none" /><path d="M 117.55443506779139 111.5257021239791 l 7.285236771221483 4.783262383750552 a29.71517491761127,29.71517491761127 0 0,0 -0.2844122800293856,0.4251577690790329 l -7.201821385781377 -4.907957067035392" fill="#ff6809" stroke="none" /><path d="M 117.14729908036423 112.12312394758627 l 23.973026986299615 16.948907008133165 a50.35935066816354,50.35935066816354 0 0,0 -0.5065196430456823,0.7035114827305384 l -23.677727550878327 -17.359052096314834" fill="#96ff23" stroke="none" /><path d="M 116.71984013943494 112.70617746262583 l 12.11901551590724 9.209798690254548 a36.221397077463514,36.221397077463514 0 0,0 -0.38152029068439564,0.49316640516232074 l -11.958688408004775 -9.417043089530122" fill="#ffbf11" stroke="none" /><path d="M 115.32070863581623 114.36230785411682 l 5.67514823747678 5.320134208011946 a28.778890377720636,28.778890377720636 0 0,0 -0.34191164799163126,0.35849299597447054 l -5.582730038106184 -5.4170343205689235" fill="#ff5b08" stroke="none" /><path d="M 115.07121518719521 114.62390073753431 l 8.226012303728798 7.981863831237183 a32.46199933002571,32.46199933002571 0 0,0 -0.3925728123476644,0.39767418628773377 l -8.087398866325596 -8.12227851150558" fill="#ff8d0d" stroke="none" /><path d="M 114.55890576462653 115.13401014063108 l 10.995893942987994 11.430252597884921 a36.86065440191214,36.86065440191214 0 0,0 -0.4610463348708122,0.43594808668161705 l -10.797511773726374 -11.617835321312459" fill="#ffc712" stroke="none" /><path d="M 114.29624159901734 115.38237550388516 l 7.811081628377017 8.40451596085595 a32.47383478796219,32.47383478796219 0 0,0 -0.4127276731164636,0.3770169437132114 l -7.665254405793689 -8.537725671155744" fill="#ff8d0d" stroke="none" /><path d="M 113.48314897796784 116.09983520530334 l 8.023182882968994 9.580248831254845 a33.49610464274073,33.49610464274073 0 0,0 -0.4452268277705617,0.3663913683670607 l -7.857085926653741 -9.716935318479084" fill="#ff9b0e" stroke="none" /><path d="M 112.92097659922987 116.55440617244103 l 6.337685677796941 8.119867882878612 a31.300413301705717,31.300413301705717 0 0,0 -0.4275804458352134,0.32785045290088033 l -6.196976503468234 -8.227757677606863" fill="#ff7d0b" stroke="none" /><path d="M 112.34349029814194 116.9893568818739 l 7.571412373196186 10.42115510289897 a33.88125611125194,33.88125611125194 0 0,0 -0.47477751293782944,0.3387411493563314 l -7.390907532409472 -10.54994051409952" fill="#ffa00e" stroke="none" /><line stroke="#e1ed5e" stroke-width="0.3" x1="143.8653032363475" x2="146.44561519142675" y1="172.8068346515853" y2="177.08958963109032" /><path d="M 144.38136562736335 173.6633856474863 a86.0,86.0 0 0,1 -40.68145358897372,12.25698825130547" fill="none" id="id66" stroke="none" /><text fill="#e1ed5e" style="font-size:6.75px; font-family:Arial;" text-anchor="middle"><textPath startOffset="21.466115282336833" xlink:href="#id66">June</textPath></text><path d="M 110.8373102113329 117.98757091392108 l 6.162363703739379 10.22817949812587 a32.94112148263499,32.94112148263499 0 0,0 -0.48820644617872316,0.28844097373676003 l -5.985389386532273 -10.33273904415638" fill="#ff930d" stroke="none" /><path d="M 110.21172684928248 118.3499491758327 l 7.034453419173102 12.640551850508876 a35.466066707710134,35.466066707710134 0 0,0 -0.536005739322475,0.2922730661467056 l -6.815824867981978 -12.759765568415352" fill="#ffb510" stroke="none" /><path d="M 109.2508944713604 118.85261126421891 l 3.8742496791521908 7.895422801298065 a29.79474341795531,29.79474341795531 0 0,0 -0.4623680685759563,0.22196477097771378 l -3.7377689425760017 -7.960941848775339" fill="#ff6909" stroke="none" /><path d="M 108.92500713936063 119.00905698771935 l 6.794235620860554 14.470802105619743 a36.986423966972076,36.986423966972076 0 0,0 -0.5786297140602519,0.265620521729765 l -6.544137911032883 -14.585609697683582" fill="#ffc812" stroke="none" /><path d="M 108.2653958097858 119.30500536409082 l 6.851267944591193 16.0021089691268 a38.407106706985836,38.407106706985836 0 0,0 -0.6099936307098218,0.2549773871086538 l -6.574802854383909 -16.11767139925543" fill="#ffda14" stroke="none" /><path d="M 107.93186726928326 119.44442032107085 l 5.502889110902974 13.489949493608965 a35.569163528048385,35.569163528048385 0 0,0 -0.5689015415186566,0.22637766416001096 l -5.269866493342451 -13.582674002175043" fill="#ffb610" stroke="none" /><path d="M 106.57524785965236 119.94407469862006 l 3.59552985947967 10.905979155342859 a32.48338871183863,32.48338871183863 0 0,0 -0.5325398748857112,0.17050245088343777 l -3.4072686395030187 -10.966254452886004" fill="#ff8d0d" stroke="none" /><path d="M 106.2309692047433 120.05430185196036 l 4.391653685841414 14.134486265490414 a35.801024426900376,35.801024426900376 0 0,0 -0.590077642610775,0.17778555323791467 l -4.147701068790393 -14.207987187834053" fill="#ffb911" stroke="none" /><path d="M 105.18746579009965 120.34920634021253 l 15.562397370298964 61.04761902063758 a84.0,84.0 0 0,0 -1.4041868610271555,0.3451149667438802 l -14.509257224528598 -61.306455245695496" fill="#4dd2ff" stroke="none" /><path d="M 104.13013068566511 120.58985236759428 l 1.4064158441364984 7.011374893952701 a28.15104072357223,28.15104072357223 0 0,0 -0.4759300543037591,0.0912131276303915 l -1.285518175261035 -7.0345452199315615" fill="#ff5207" stroke="none" /><path d="M 103.7750983002368 120.6578951692458 l 2.1109321464948643 11.551332316021137 a32.74262801941114,32.74262801941114 0 0,0 -0.5553009831343502,0.0965461938057081 l -1.9117821918884639 -11.58595708834785" fill="#ff910d" stroke="none" /><path d="M 101.98527174616119 120.90594882070398 l 1.4258378702386723 15.014817794828474 a36.08236609567957,36.08236609567957 0 0,0 -0.6188223418423304,0.05339459552277366 l -1.1671712106548 -15.03713664262991" fill="#ffbd11" stroke="none" /><path d="M 101.26447882468166 120.96189622390904 l 0.689700891904655 11.433515721611702 a32.454299152573064,32.454299152573064 0 0,0 -0.5579232964455797,0.028838261599253366 l -0.49278952704559564 -11.443693789973157" fill="#ff8d0d" stroke="none" /><line stroke="#e1ed5e" stroke-width="0.3" x1="102.19456741930631" x2="102.32365962044197" y1="184.97166512339345" y2="189.96999836594603" /><path d="M 102.22038585953345 185.97133177190398 a86.0,86.0 0 0,1 -42.740103519485714,-10.115201625700543" fill="none" id="id67" stroke="none" /><text fill="#e1ed5e" style="font-size:6.75px; font-family:Arial;" text-anchor="middle"><textPath startOffset="22.20632615414155" xlink:href="#id67">July</textPath></text><path d="M 100.54218724476979 120.99299961872073 l 0.3780049241038679 14.636008692820404 a35.64088925506102,35.64088925506102 0 0,0 -0.6134311459452539,0.010560773484789121 l -0.12601408826594598 -14.640346943584353" fill="#ffb711" stroke="none" /><path d="M 98.37488393609728 120.93702456842531 l -0.6671646423842104 8.59535070697515 a29.621204233513197,29.621204233513197 0 0,0 -0.5080116676208609,-0.043833384283944926 l 0.8150206277466129 -8.582593070412543" fill="#ff6709" stroke="none" /><path d="M 98.01472825383883 120.90594882070398 l -1.356224305315599 14.281750582079173 a35.346000977800315,35.346000977800315 0 0,0 -0.6052033234268485,-0.06273179900028172 l 1.6018602253480407 -14.256289414623131" fill="#ffb310" stroke="none" /><path d="M 96.58105272829116 120.7198165907248 l -2.3323561659288368 14.134757906967508 a35.32589495889617,35.32589495889617 0 0,0 -0.5991120868229142,-0.10416331575583204 l 2.575317224223801 -14.09251601269067" fill="#ffb310" stroke="none" /><path d="M 95.86986931433489 120.58985236759428 l -3.7019902824293593 18.455453152135405 a39.823083783000754,39.823083783000754 0 0,0 -0.6709403368875516,-0.14060207102549396 l 4.019122080746298 -18.38899510038337" fill="#ffec16" stroke="none" /><path d="M 95.51606077576429 120.51570834832081 l -3.1498848945973013 14.411908055991615 a35.75211404048817,35.75211404048817 0 0,0 -0.6000904674228862,-0.1365786366586195 l 3.39749551141305 -14.35555268575531" fill="#ffb811" stroke="none" /><path d="M 94.46302465271185 120.25689768951611 l -3.9590662077969814 14.484153186024717 a36.015488628544524,36.015488628544524 0 0,0 -0.5966031409215878,-0.16860600693214164 l 4.207800516823183 -14.413858385754054" fill="#ffbc11" stroke="none" /><path d="M 94.11515582081647 120.15858648285463 l -4.00760222251179 13.728077334172136 a35.30108327599319,35.30108327599319 0 0,0 -0.5818375405328645,-0.17530287807642828 l 4.2433147374849 -13.657059086989983" fill="#ffb310" stroke="none" /><path d="M 93.42475214034765 119.94407469862007 l -2.695564686098832 8.176200289635911 a29.609083583819213,29.609083583819213 0 0,0 -0.4826707376539445,-0.16374812038612296 l 2.8359051566900026 -8.128589182351666" fill="#ff6609" stroke="none" /><path d="M 92.06813273071674 119.44442032107085 l -3.2451485716115696 7.955255766204962 a29.591686886611377,29.591686886611377 0 0,0 -0.4699843875380751,-0.1964535121077785 l 3.381604418647107 -7.89821721107721" fill="#ff6609" stroke="none" /><path d="M 91.40352486487194 119.15986991738527 l -4.702019418513256 10.479886115135209 a32.486383225292435,32.486383225292435 0 0,0 -0.5082293614891908,-0.23330317278363497 l 4.881716775769867 -10.397395872017498" fill="#ff8d0d" stroke="none" /><path d="M 90.7491055286396 118.85261126421891 l -3.3220956049621027 6.7701752751386195 a28.541325643718537,28.541325643718537 0 0,0 -0.4391913262534031,-0.22021964844582942 l 3.438140838898266 -6.711987785783488" fill="#ff5808" stroke="none" /><line stroke="#e1ed5e" stroke-width="0.3" x1="58.666819895761336" x2="56.23545636021788" y1="174.27360380694188" y2="178.64263932499728" /><path d="M 58.180547188652646 175.14741091055294 a86.0,86.0 0 0,1 -31.652253787137756,-30.449443065178592" fill="none" id="id68" stroke="none" /><text fill="#e1ed5e" style="font-size:6.75px; font-family:Arial;" text-anchor="middle"><textPath startOffset="22.20632615414155" xlink:href="#id68">August</textPath></text><path d="M 89.4739219176387 118.17145234162733 l -7.336124255075598 12.66454905904117 a35.63589839930467,35.63589839930467 0 0,0 -0.5281445965062792,-0.31203713691709667 l 7.553036722610259 -12.536393349830323" fill="#ffb711" stroke="none" /><path d="M 88.8546689885994 117.79835938074946 l -7.604318120261731 12.1435950723688 a35.32803389707746,35.32803389707746 0 0,0 -0.5126235631591737,-0.3271806119526246 l 7.812223485467829 -12.01090003159237" fill="#ffb310" stroke="none" /><path d="M 88.54995079064634 117.60387380957326 l -4.685701361451926 7.204029779100093 a29.593825824792667,29.593825824792667 0 0,0 -0.424636594385369,-0.28142598003285435 l 4.8090126545772565 -7.12230577797592" fill="#ff6609" stroke="none" /><path d="M 87.65650970185807 116.9893568818739 l -8.60628549485418 11.845535757530605 a35.64188742621229,35.64188742621229 0 0,0 -0.4932413413669946,-0.3648881526082307 l 8.80891180663974 -11.695637656182608" fill="#ffb711" stroke="none" /><path d="M 87.07902340077011 116.55440617244103 l -5.281507091387036 6.7666877129596985 a29.583844113279977,29.583844113279977 0 0,0 -0.39873740061340907,-0.3167811064016964 l 5.397201984717803 -6.674772692552871" fill="#ff6609" stroke="none" /><path d="M 86.51685102203217 116.09983520530335 l -5.71116072985754 6.819530566038793 a29.895130916597253,29.895130916597253 0 0,0 -0.3916753617811661,-0.3337942405254208 l 5.827701568215764 -6.720211935290421" fill="#ff6a09" stroke="none" /><path d="M 85.97065885151581 115.62618273729859 l -15.77653089758764 17.57224036090803 a44.61530348024481,44.61530348024481 0 0,0 -0.567040219026207,-0.5179777956866094 l 16.0766706660807 -17.298069798634845" fill="#d8ff1c" stroke="none" /><path d="M 85.44109423537348 115.13401014063109 l -10.962281867425931 11.395312781622108 a36.8121718031362,36.8121718031362 0 0,0 -0.4528774446900325,-0.44323589769617483 l 11.15680926449176 -11.204926781003364" fill="#ffc612" stroke="none" /><path d="M 85.18274418774928 114.88116024355367 l -1.031286477896983 1.0357342499214035 a22.461607757215805,22.461607757215805 0 0,0 -0.2716350412509672,-0.27516486266768614 l 1.0489621442034833 -1.0178288932730528" fill="#ff0100" stroke="none" /><path d="M 84.67929136418377 114.36230785411682 l -6.27166715509102 5.879337345362378 a29.596535146488975,29.596535146488975 0 0,0 -0.3452275045244347,-0.3746762729010481 l 6.371941067611184 -5.770509817659986" fill="#ff6609" stroke="none" /><path d="M 83.95833913139862 113.55231037782056 l -10.931514944021119 9.235158668085868 a35.31035200811212,35.31035200811212 0 0,0 -0.38825245351620896,-0.4676750913527088 l 11.088863397430863 -9.045622319619397" fill="#ffb310" stroke="none" /><path d="M 83.50135304334701 112.99209946851258 l -6.925497213040787 5.453583490641937 a29.814992032738203,29.814992032738203 0 0,0 -0.3140415705875855,-0.40594106321418555 l 7.018345600846441 -5.333564433314499" fill="#ff6909" stroke="none" /><path d="M 83.06392112726016 112.41649034213515 l -6.90843805084177 5.064841453684075 a29.566162224314635,29.566162224314635 0 0,0 -0.2973795677941052,-0.4130342101139972 l 6.994597411011483 -4.9451736381189395" fill="#ff6609" stroke="none" /><path d="M 82.44556493220864 111.52570212397912 l -12.11091047530424 7.951651309169546 a35.48802647303806,35.48802647303806 0 0,0 -0.3308753805603575,-0.5135259384081949 l 12.245990719241641 -7.7420037708399025" fill="#ffb510" stroke="none" /><path d="M 82.05923443525364 110.91462005526583 l -7.617459145135614 4.634232137732115 a29.916377702531413,29.916377702531413 0 0,0 -0.26386120382589573,-0.4422465548802898 l 7.696101224659741 -4.502423488965714" fill="#ff6b09" stroke="none" /><line stroke="#e1ed5e" stroke-width="0.3" x1="26.63291911575756" x2="22.317208475507996" y1="142.92168965132927" y2="145.44649492493687" /><path d="M 25.769776987707644 143.4266507060508 a86.0,86.0 0 0,1 -11.730757126820373,-40.83630448921669" fill="none" id="id69" stroke="none" /><text fill="#e1ed5e" style="font-size:6.75px; font-family:Arial;" text-anchor="middle"><textPath startOffset="21.46611528233685" xlink:href="#id69">September</textPath></text><path d="M 81.18737489456691 109.33194174019688 l -15.375274125740354 7.626854921992155 a38.16298256256111,38.16298256256111 0 0,0 -0.2868525007318828,-0.5910011144118634 l 15.504279883086957 -7.361064851615008" fill="#ffd714" stroke="none" /><path d="M 80.87730276802145 108.67885076344099 l -13.507227126911037 6.130265361641861 a35.8332510954985,35.8332510954985 0 0,0 -0.25008011481466363,-0.5638646396848765 l 13.61074832645698 -5.896852385464288" fill="#ffba11" stroke="none" /><path d="M 80.0844068197444 106.66101706037122 l -14.036452446388234 4.694665550066306 a35.80073923514287,35.80073923514287 0 0,0 -0.19043904723390734,-0.5861111205071396 l 14.11518374463839 -4.452355529581363" fill="#ffb911" stroke="none" /><path d="M 79.86692584326677 105.97154293290107 l -8.345550408584293 2.475320568313922 a29.704908014341072,29.704908014341072 0 0,0 -0.1411794543072484,-0.4914642014479248 l 8.386922499777645 -2.3312988913614014" fill="#ff6809" stroke="none" /><path d="M 79.50377843672027 104.57218783832718 l -8.461844994074852 1.887623270087633 a29.66982942816789,29.66982942816789 0 0,0 -0.10690457926496189,-0.4994226039589035 l 8.493083612064256 -1.7416868467125657" fill="#ff6709" stroke="none" /><path d="M 79.4281124754447 104.21870165774334 l -8.505096855331322 1.7441504169233768 a29.68209267374063,29.68209267374063 0 0,0 -0.09833262746355312,-0.5013959489479197 l 8.533859415770541 -1.597490740907502" fill="#ff6709" stroke="none" /><path d="M 79.29508885075956 103.50808413554451 l -1.6168096427606453 0.27394004335884725 a22.639852605656756,22.639852605656756 0 0,0 -0.061794125375009785,-0.38479207769729107 l 1.6212855224969458 -0.2460687359683425" fill="#ff0300" stroke="none" /><path d="M 79.23777060512086 103.15116336523772 l -8.791033047027788 1.334248878264519 a29.89170861550719,29.89170861550719 0 0,0 -0.07283036371655852,-0.5093753942048438 l 8.812697461760946 -1.1827280120792745" fill="#ff6a09" stroke="none" /><path d="M 79.07016306316243 101.71520430193888 l -1.421194519123978 0.11646717365499576 a22.425958787527613,22.425958787527613 0 0,0 -0.02821766697229853,-0.38500764679620186 l 1.422988744760612 -0.09198639036203328" fill="#ff0000" stroke="none" /><path d="M 79.04373962182676 101.35467743843564 l -8.579199142161738 0.5545859474926991 a29.597105530003983,29.597105530003983 0 0,0 -0.02848883361562846,-0.5086872619230126 l 8.587474326664898 -0.4068269692342488" fill="#ff6609" stroke="none" /><path d="M 79.0095281055655 100.63252640178507 l -8.68442481255134 0.261696259421047 a29.68836689240575,29.68836689240575 0 0,0 -0.010995916984458664,-0.5109370546416477 l 8.687642792220805 -0.11216938898927044" fill="#ff6709" stroke="none" /><line stroke="#e1ed5e" stroke-width="0.3" x1="15.007084014347285" x2="10.007500721073583" y1="101.09737516637583" y2="101.16192664675087" /><path d="M 14.007167355692545 101.11028546245083 a86.0,86.0 0 0,1 10.666146001902534,-42.60595125391555" fill="none" id="id70" stroke="none" /><text fill="#e1ed5e" style="font-size:6.75px; font-family:Arial;" text-anchor="middle"><textPath startOffset="22.20632615414155" xlink:href="#id70">October</textPath></text><path d="M 79.00019446554 99.90962569577889 l -13.72843369270591 -0.05908138725323608 a34.72856082280086,34.72856082280086 0 0,0 0.007717997436761627,-0.5977674070087663 l 13.725382688151432 0.29538505232247436" fill="#ffab0f" stroke="none" /><path d="M 79.12142395522702 97.74499172005258 l -7.115930680852027 -0.7685621169969834 a28.157314942237353,28.157314942237353 0 0,0 0.056193482361711365,-0.48143144009377403 l 7.101646845486727 0.8909372954156192" fill="#ff5207" stroke="none" /><path d="M 79.21141760316559 97.0276538004421 l -7.210891300593191 -1.0310113957557334 a28.28422527432731,28.28422527432731 0 0,0 0.07305964427463771,-0.4813717723022192 l 7.192075762879251 1.1549822804500447" fill="#ff5407" stroke="none" /><path d="M 79.32604984820605 96.31383870115002 l -7.068650264322604 -1.2603389699665457 a28.180130282837794,28.180130282837794 0 0,0 0.0892562364708925,-0.4768103842596714 l 7.045908303941849 1.3818274316887897" fill="#ff5307" stroke="none" /><path d="M 79.3925641242962 95.95851677861259 l -7.349277104270448 -1.4413234273971152 a28.48927814797378,28.48927814797378 0 0,0 0.09851959228473407,-0.48041652050140626 l 7.3233782160707195 1.5676156040619238" fill="#ff5708" stroke="none" /><path d="M 79.71946130924805 94.55025226153421 l -7.470934237351865 -2.007575221993541 a28.735969018216057,28.735969018216057 0 0,0 0.13247723626469046,-0.4765911044927676 l 7.435270230520813 2.135877629905251" fill="#ff5a08" stroke="none" /><path d="M 79.91906864156998 93.8553929516997 l -7.619525524497541 -2.331514878809491 a28.968257704704307,28.968257704704307 0 0,0 0.1500066271512415,-0.47556200107683555 l 7.578263413578095 2.462327046312741" fill="#ff5d08" stroke="none" /><path d="M 80.14247586403 93.16781622104843 l -7.416098129583552 -2.5515842255618026 a28.842773331401876,28.842773331401876 0 0,0 0.16556702219054675,-0.46808026722766677 l 7.371078026583195 2.6788621192160806" fill="#ff5c08" stroke="none" /><path d="M 80.2630227832202 92.82701384747504 l -27.763634455727296 -10.090104645071317 a50.5403048383008,50.5403048383008 0 0,0 0.30419345844239104,-0.8150872331531672 l 27.585836408783276 10.566515015253826" fill="#94ff23" stroke="none" /><path d="M 80.52162464483688 92.15188598940014 l -6.6847356916939 -2.6933749289944537 a28.206938308043313,28.206938308043313 0 0,0 0.18533075075470704,-0.4487931132558058 l 6.637383254052994 2.808042612703571" fill="#ff5307" stroke="none" /><path d="M 80.803312248108 91.48605970444005 l -1.4338597214455955 -0.635932418049193 a22.568554666280374,22.568554666280374 0 0,0 0.16055665602991553,-0.35376530897067043 l 1.4227007484523284 0.6605197358619345" fill="#ff0200" stroke="none" /><path d="M 81.10775173730289 90.83032412892265 l -6.889088809188789 -3.343737100473024 a28.65768388078079,28.65768388078079 0 0,0 0.2192176174949437,-0.44192934002946327 l 6.830511178740433 3.4618260290014486" fill="#ff5908" stroke="none" /><path d="M 81.6062741919709 89.86733742301443 l -6.398427684103884 -3.5247404154501067 a28.30504427262521,28.30504427262521 0 0,0 0.23876296694166696,-0.42473267630143735 l 6.336807075869786 3.6343566016863287" fill="#ff5407" stroke="none" /><line stroke="#e1ed5e" stroke-width="0.3" x1="26.266209847984243" x2="21.928928074336255" y1="57.711370442889674" y2="55.22380399835377" /><path d="M 25.398753493254645 57.213857153982495 a86.0,86.0 0 0,1 29.58750427330803,-30.492523968695096" fill="none" id="id71" stroke="none" /><text fill="#e1ed5e" style="font-size:6.75px; font-family:Arial;" text-anchor="middle"><textPath startOffset="21.46611528233685" xlink:href="#id71">November</textPath></text><path d="M 81.96595687620814 89.24020034530311 l -6.163587978600313 -3.6774322512484514 a28.177278365262737,28.177278365262737 0 0,0 0.25209835486306853,-0.41438341059562933 l 6.0993738254510275 3.7829834350511553" fill="#ff5207" stroke="none" /><path d="M 82.95767976084542 87.72973835380427 l -5.959689450959201 -4.290903343391792 a28.34368775576721,28.34368775576721 0 0,0 0.2884812272689048,-0.39348806979306566 l 5.884945611176663 4.392853856856358" fill="#ff5507" stroke="none" /><path d="M 83.39014120810768 87.1503855733568 l -1.1842487051945831 -0.9161510304006744 a22.497256726903995,22.497256726903995 0 0,0 0.23959141260961495,-0.3042567631253189 l 1.1683032119909973 0.9364001874790411" fill="#ff0100" stroke="none" /><path d="M 83.84228863543731 86.58626213691792 l -11.007195836085483 -9.137905500446184 a35.30593153587078,35.30593153587078 0 0,0 0.3922142432508995,-0.46425795326847047 l 10.848270979347458 9.32602240334377" fill="#ffb310" stroke="none" /><path d="M 84.5562425177563 85.77008943001954 l -6.326652452448321 -5.829390853177769 a29.602809365154094,29.602809365154094 0 0,0 0.34851342078786257,-0.37176981790095276 l 6.225371709690002 5.9374300879567725" fill="#ff6609" stroke="none" /><path d="M 84.80347519578584 85.50635884689758 l -1.1866695617675291 -1.1317826290651898 a22.639852605656756,22.639852605656756 0 0,0 0.2713933316827561,-0.2796946844464376 l 1.1670119663816547 1.1520415090617508" fill="#ff0300" stroke="none" /><path d="M 85.05521093208273 85.24692304244772 l -5.116789336425718 -5.051151040861876 a28.18996939847173,28.18996939847173 0 0,0 0.3438695692508304,-0.34239288403907814 l 5.029083967007575 5.138479775551064" fill="#ff5307" stroke="none" /><path d="M 85.57189188830299 84.74124197986013 l -10.467602101497638 -11.070239166587006 a36.23551406946004,36.23551406946004 0 0,0 0.45689897391588513,-0.42463780160579534 l 10.275495243786898 11.248781554267449" fill="#ffbf11" stroke="none" /><path d="M 86.37877921826538 84.01681056812374 l -5.7808363819523105 -6.7832541919682185 a29.91238501792634,29.91238501792634 0 0,0 0.3947615266331196,-0.3306014258214938 l 5.663217318360081 6.881756775183525" fill="#ff6b09" stroke="none" /><path d="M 86.65592168130627 83.78471172551755 l -0.9287527801665713 -1.12859005368924 a22.461607757215805,22.461607757215805 0 0,0 0.3006610287300293,-0.24311364232665597 l 0.9091883528720415 1.1444097932800301" fill="#ff0100" stroke="none" /><path d="M 87.22198572758235 83.33499621200491 l -5.46905304308 -7.132703700011588 a29.988103429544054,29.988103429544054 0 0,0 0.41234191460819347,-0.3105673813384965 l 5.345464974713416 7.225787670855938" fill="#ff6c09" stroke="none" /><path d="M 87.51073957382395 83.11751280151077 l -1.3144864054457728 -1.776870619657746 a23.2102361206678,23.2102361206678 0 0,0 0.3232353458106634,-0.2348442252859671 l 1.2837057432813277 1.799234079760381" fill="#ff0c01" stroke="none" /><path d="M 88.39885842347998 82.49532879139004 l -6.339339264310781 -9.565269828805802 a32.47526074674972,32.47526074674972 0 0,0 0.46862261202468375,-0.3048051824468568 l 6.17374962650181 9.672973935412193" fill="#ff8d0d" stroke="none" /><path d="M 88.70189139769569 82.29822771554957 l -0.7863525321426003 -1.2320498898771663 a22.461607757215805,22.461607757215805 0 0,0 0.3277050677970475,-0.20520888339079135 l 0.7650283119733106 1.245403114590888" fill="#ff0100" stroke="none" /><path d="M 89.00827224532344 82.1063720568725 l -6.049097522000083 -9.847432802755865 a32.55696818527505,32.55696818527505 0 0,0 0.4800415409098238,-0.2892196571767107 l 5.878693914872611 9.950099069391195" fill="#ff8e0d" stroke="none" /><line stroke="#e1ed5e" stroke-width="0.3" x1="56.762969772571076" x2="54.21961505331055" y1="26.818313649435495" y2="22.513508569990535" /><path d="M 56.25429882871897 25.957352633546506 a86.0,86.0 0 0,1 42.265352541879196,-11.944610805530505" fill="none" id="id72" stroke="none" /><text fill="#e1ed5e" style="font-size:6.75px; font-family:Arial;" text-anchor="middle"><textPath startOffset="22.20632615414155" xlink:href="#id72">December</textPath></text><path d="M 89.63071344664047 81.73862282372117 l -4.2443364092762845 -7.474711749353258 a29.595679571216458,29.595679571216458 0 0,0 0.4451696306709452,-0.2477364174934501 l 4.115042689533294 7.5466635644068925" fill="#ff6609" stroke="none" /><path d="M 90.58718382345135 81.22770947309562 l -3.2946603645874637 -6.570650099977867 a28.35038976206859,28.35038976206859 0 0,0 0.4381198128211767,-0.2149834894178942 l 3.181069284755861 6.626388749530592" fill="#ff5507" stroke="none" /><path d="M 91.56875222667455 80.76684994638697 l -3.527033563705914 -8.045780126341786 a29.78490430232137,29.78490430232137 0 0,0 0.47133368915822466,-0.20180048779607265 l 3.388016116757381 8.105300142100646" fill="#ff6909" stroke="none" /><path d="M 91.90106846888425 80.62456947434976 l -3.034514605589552 -7.259602911048606 a28.86829799369862,28.86829799369862 0 0,0 0.4601278569533486,-0.18769770597371582 l 2.909102879047823 7.3107615032058995" fill="#ff5c08" stroke="none" /><path d="M 93.25333710446033 80.11325718540243 l -4.6548840456910465 -13.72092889206473 a35.48902464418933,35.48902464418933 0 0,0 0.5801900848672698,-0.19127954900705035 l 4.418011138581368 13.799022165331014" fill="#ffb510" stroke="none" /></svg>