<?xml version="1.0" encoding="utf-8" ?>
<svg baseProfile="full" height="200mm" version="1.1" viewBox="0,0,200,200" width="200mm" xmlns="http://www.w3.org/2000/svg" xmlns:ev="http://www.w3.org/2001/xml-events" xmlns:xlink="http://www.w3.org/1999/xlink"><defs /><rect fill="#1a1a1a" height="200" width="200" x="0" y="0" /><text alignment-baseline="middle" fill="#e1ed5e" style="dominant-baseline: central; font-size:9.0px; font-family:Arial;" text-anchor="middle" x="100.0" y="100.0">2026</text><line stroke="#e1ed5e" stroke-width="0.3" x1="100.0" x2="100.0" y1="15.0" y2="10.0" /><path d="M 100.0 14.0 a86.0,86.0 0 0,1 42.46469731375804,11.215312516191453" fill="none" id="id109" stroke="none" /><text fill="#e1ed5e" style="font-size:6.75px; font-family:Arial;" text-anchor="middle"><textPath startOffset="22.20632615414155" xlink:href="#id109">January</textPath></text><path d="M 100.72285384407766 79.0124445844662 l 1.7774063207022197 -51.60574846116492 a72.63634812286688,72.63634812286688 0 0,0 1.249203953634921,0.05379335001383895 l -2.6654511067264726 51.567507384626886" fill="red" stroke="none" /><path d="M 102.88285421437855 79.19881850522331 l 3.8780784593764834 -27.982203707051976 a49.249658703071674,49.249658703071674 0 0,0 0.8387240788342976,0.12360612699245797 l -4.359171518639437 27.91130309589855" fill="red" stroke="none" /><path d="M 104.307194497241 79.44645832069477 l 3.3701539391381585 -16.08206908188641 a37.43139931740615,37.43139931740615 0 0,0 0.6294843340026975,0.13758089403272378 l -3.646480997294384 16.021674689757813" fill="red" stroke="none" /><path d="M 104.66035177308747 79.52364482259891 l 1.306534504888005 -5.740567638715566 a26.887372013651877,26.887372013651877 0 0,0 0.4503971711537851,0.10659445866312967 l -1.4051553630043137 5.717227267911568" fill="red" stroke="none" /><path d="M 106.74666289553966 80.11325718540242 l 9.056350536740613 -26.69487371038973 a49.18924914675768,49.18924914675768 0 0,0 0.7994845685906504,0.2789244676902679 l -9.514517109394538 26.535028389527255" fill="red" stroke="none" /><line stroke="#e1ed5e" stroke-width="0.3" x1="143.23703022742887" x2="145.7803849466894" y1="26.81831364943548" y2="22.513508569990506" /><path d="M 143.74570117128098 25.957352633546492 a86.0,86.0 0 0,1 28.547481713284135,27.462654790039103" fill="none" id="id110" stroke="none" /><text fill="#e1ed5e" style="font-size:6.75px; font-family:Arial;" text-anchor="middle"><textPath startOffset="19.985693538727396" xlink:href="#id110">February</textPath></text><path d="M 111.2981086023043 82.29822771554956 l 14.7327115830633 -23.08307653572048 a48.3839590443686,48.3839590443686 0 0,0 0.698187381597457,0.4541204943364946 l -15.127865990445038 22.826057117224458" fill="red" stroke="none" /><path d="M 112.19680574252982 82.90503203632743 l 15.115475785647147 -21.185757957124796 a47.02525597269625,47.02525597269625 0 0,0 0.6548931599465233,0.4758077320009634 l -15.47791426194746 20.922430990307156" fill="red" stroke="none" /><path d="M 113.06298171725822 83.55741782278167 l 28.676142800479468 -36.095115550808266 a67.09965870307167,67.09965870307167 0 0,0 0.8981660009007624,0.7262544428031461 l -29.293212199944723 35.59615501074099" fill="red" stroke="none" /><path d="M 114.16331599549186 84.49514656593476 l 10.428095311941613 -11.415835773174994 a36.4617747440273,36.4617747440273 0 0,0 0.45975192833650463,0.42728931181355323 l -10.623055124072964 11.2346418752868" fill="red" stroke="none" /><path d="M 116.15771136456269 86.58626213691792 l 16.384596828872503 -13.602092641461775 a42.29488054607509,42.29488054607509 0 0,0 0.4602116182012533,0.5641650278804764 l -16.616306939150164 13.318043443973197" fill="red" stroke="none" /><path d="M 116.82858285166822 87.43820079747576 l 41.42653922954051 -30.923095072464474 a72.6952218430034,72.6952218430034 0 0,0 0.7398898475936146,1.0092089206127555 l -41.95269168964775 30.205423708180223" fill="red" stroke="none" /><path d="M 117.45458315368197 88.32363383020206 l 25.85252691577527 -17.294229717509594 a52.10375426621161,52.10375426621161 0 0,0 0.4922647693762027,0.7497530161045406 l -26.1463883205094 16.84665863742738" fill="red" stroke="none" /><line stroke="#e1ed5e" stroke-width="0.3" x1="172.23445277983987" x2="176.4835382374775" y1="55.19839476539836" y2="52.563006222186495" /><path d="M 173.08426987136738 54.67131705675599 a86.0,86.0 0 0,1 12.851231095245387,41.99856678651699" fill="none" id="id111" stroke="none" /><text fill="#e1ed5e" style="font-size:6.75px; font-family:Arial;" text-anchor="middle"><textPath startOffset="22.20632615414155" xlink:href="#id111">March</textPath></text><path d="M 118.3937258080291 89.86733742301442 l 55.1811774240873 -30.397987730956764 a84.0,84.0 0 0,0 0.6867676031261407,1.272476066670165 l -55.696253126431905 29.44363068095414" fill="red" stroke="none" /><path d="M 119.196687751892 91.48605970444005 l 33.35693587467963 -14.794164709578782 a57.49044368600682,57.49044368600682 0 0,0 0.39342432633073227,0.9080775880354383 l -33.60665091085304 14.21778797695674" fill="red" stroke="none" /><path d="M 119.34039704204932 91.81776055985345 l 32.284601342205896 -13.658475461350433 a56.054948805460754,56.054948805460754 0 0,0 0.3683032037075257,0.8918754213258417 l -32.51492623279962 13.100725469571287" fill="red" stroke="none" /><line stroke="#e1ed5e" stroke-width="0.3" x1="184.98032266829074" x2="189.97916517819016" y1="98.17113171792111" y2="98.06355123074" /><path d="M 185.9800911702706 98.14961562048488 a86.0,86.0 0 0,1 -9.607161424134198,41.387399972396054" fill="none" id="id112" stroke="none" /><text fill="#e1ed5e" style="font-size:6.75px; font-family:Arial;" text-anchor="middle"><textPath startOffset="21.466115282336823" xlink:href="#id112">April</textPath></text><line stroke="#e1ed5e" stroke-width="0.3" x1="174.80103733775053" x2="179.2010983576182" y1="140.37084112569926" y2="142.7455964860345" /><path d="M 175.68104954172406 140.8457921977663 a86.0,86.0 0 0,1 -30.038265399797805,32.042727171017184" fill="none" id="id113" stroke="none" /><text fill="#e1ed5e" style="font-size:6.75px; font-family:Arial;" text-anchor="middle"><textPath startOffset="22.206326154141568" xlink:href="#id113">May</textPath></text><line stroke="#e1ed5e" stroke-width="0.3" x1="143.8653032363475" x2="146.44561519142675" y1="172.8068346515853" y2="177.08958963109032" /><path d="M 144.38136562736335 173.6633856474863 a86.0,86.0 0 0,1 -40.68145358897372,12.25698825130547" fill="none" id="id114" stroke="none" /><text fill="#e1ed5e" style="font-size:6.75px; font-family:Arial;" text-anchor="middle"><textPath startOffset="21.466115282336833" xlink:href="#id114">June</textPath></text><line stroke="#e1ed5e" stroke-width="0.3" x1="102.19456741930631" x2="102.32365962044197" y1="184.97166512339345" y2="189.96999836594603" /><path d="M 102.22038585953345 185.97133177190398 a86.0,86.0 0 0,1 -42.740103519485714,-10.115201625700543" fill="none" id="id115" stroke="none" /><text fill="#e1ed5e" style="font-size:6.75px; font-family:Arial;" text-anchor="middle"><textPath startOffset="22.20632615414155" xlink:href="#id115">July</textPath></text><line stroke="#e1ed5e" stroke-width="0.3" x1="58.666819895761336" x2="56.23545636021788" y1="174.27360380694188" y2="178.64263932499728" /><path d="M 58.180547188652646 175.14741091055294 a86.0,86.0 0 0,1 -31.652253787137756,-30.449443065178592" fill="none" id="id116" stroke="none" /><text fill="#e1ed5e" style="font-size:6.75px; font-family:Arial;" text-anchor="middle"><textPath startOffset="22.20632615414155" xlink:href="#id116">August</textPath></text><line stroke="#e1ed5e" stroke-width="0.3" x1="26.63291911575756" x2="22.317208475507996" y1="142.92168965132927" y2="145.44649492493687" /><path d="M 25.769776987707644 143.4266507060508 a86.0,86.0 0 0,1 -11.730757126820373,-40.83630448921669" fill="none" id="id117" stroke="none" /><text fill="#e1ed5e" style="font-size:6.75px; font-family:Arial;" text-anchor="middle"><textPath startOffset="21.46611528233685" xlink:href="#id117">September</textPath></text><line stroke="#e1ed5e" stroke-width="0.3" x1="15.007084014347285" x2="10.007500721073583" y1="101.09737516637583" y2="101.16192664675087" /><path d="M 14.007167355692545 101.11028546245083 a86.0,86.0 0 0,1 10.666146001902534,-42.60595125391555" fill="none" id="id118" stroke="none" /><text fill="#e1ed5e" style="font-size:6.75px; font-family:Arial;" text-anchor="middle"><textPath startOffset="22.20632615414155" xlink:href="#id118">October</textPath></text><line stroke="#e1ed5e" stroke-width="0.3" x1="26.266209847984243" x2="21.928928074336255" y1="57.711370442889674" y2="55.22380399835377" /><path d="M 25.398753493254645 57.213857153982495 a86.0,86.0 0 0,1 29.58750427330803,-30.492523968695096" fill="none" id="id119" stroke="none" /><text fill="#e1ed5e" style="font-size:6.75px; font-family:Arial;" text-anchor="middle"><textPath startOffset="21.46611528233685" xlink:href="#id119">November</textPath></text><line stroke="#e1ed5e" stroke-width="0.3" x1="56.762969772571076" x2="54.21961505331055" y1="26.818313649435495" y2="22.513508569990535" /><path d="M 56.25429882871897 25.957352633546506 a86.0,86.0 0 0,1 42.265352541879196,-11.944610805530505" fill="none" id="id120" stroke="none" /><text fill="#e1ed5e" style="font-size:6.75px; font-family:Arial;" text-anchor="middle"><textPath startOffset="22.20632615414155" xlink:href="#id120">December</textPath></text></svg>