<?xml version="1.0" encoding="utf-8" ?>
<svg baseProfile="full" height="200mm" version="1.1" viewBox="0,0,200,200" width="200mm" xmlns="http://www.w3.org/2000/svg" xmlns:ev="http://www.w3.org/2001/xml-events" xmlns:xlink="http://www.w3.org/1999/xlink"><defs /><rect fill="#1a1a1a" height="200" width="200" x="0" y="0" /><text alignment-baseline="middle" fill="#e1ed5e" style="dominant-baseline: central; font-size:9.0px; font-family:Arial;" text-anchor="middle" x="100.0" y="100.0">2025</text><line stroke="#e1ed5e" stroke-width="0.3" x1="100.0" x2="100.0" y1="15.0" y2="10.0" /><path d="M 100.0 14.0 a86.0,86.0 0 0,1 42.46469731375804,11.215312516191453" fill="none" id="id97" stroke="none" /><text fill="#e1ed5e" style="font-size:6.75px; font-family:Arial;" text-anchor="middle"><textPath startOffset="22.20632615414155" xlink:href="#id97">January</textPath></text><path d="M 101.80526077348638 79.07773832637324 l 3.518950991219185 -40.78325665536415 a61.93479008735609,61.93479008735609 0 0,0 1.0613702243514131,0.1007898917524825 l -4.220446342660843 40.71664121909649" fill="red" stroke="none" /><path d="M 102.16513564639614 79.11191278185805 l 2.38572990556164 -23.016264329326738 a44.139579314666236,44.139579314666236 0 0,0 0.7550669801381663,0.08484057301168065 l -2.7815635892095316 22.971787802844457" fill="red" stroke="none" /><path d="M 102.88285421437855 79.19881850522331 l 2.9714923030060776 -21.440747990957803 a42.645679497733155,42.645679497733155 0 0,0 0.7262579923374799,0.10703154934447698 l -3.340119275772213 21.38642195745236" fill="red" stroke="none" /><path d="M 104.66035177308747 79.52364482259891 l 4.5871177555944 -20.154584241156343 a41.67000036859112,41.67000036859112 0 0,0 0.698024718758726,0.16519989865603432 l -4.93336616131565 20.07263843035944" fill="red" stroke="none" /><path d="M 105.36241919743992 79.69619591428918 l 5.2186588469243445 -19.75948222561548 a41.43701392045804,41.43701392045804 0 0,0 0.6880559151585808,0.18807167307561334 l -5.558012651306636 19.666724011713573" fill="red" stroke="none" /><path d="M 106.74666289553966 80.11325718540242 l 6.6309456614207285 -19.545649905440815 a41.63981275571009,41.63981275571009 0 0,0 0.6767817829028334,0.23611587509614237 l -6.966409448386836 19.428613177172465" fill="red" stroke="none" /><path d="M 107.08798089147638 80.2323363322302 l 6.810439208721097 -18.993627913089515 a41.17771006622354,41.17771006622354 0 0,0 0.6651527161274056,0.24498135880440847 l -7.136374250621079 18.87358328647878" fill="red" stroke="none" /><path d="M 108.09893153111575 80.62456947434976 l 7.240290155754862 -17.321264954446594 a39.77359904657763,39.77359904657763 0 0,0 0.6294006178244466,0.2694764974745599 l -7.5373745313696245 17.19406892900924" fill="red" stroke="none" /><line stroke="#e1ed5e" stroke-width="0.3" x1="143.23703022742887" x2="145.7803849466894" y1="26.81831364943548" y2="22.513508569990506" /><path d="M 143.74570117128098 25.957352633546492 a86.0,86.0 0 0,1 28.547481713284135,27.462654790039103" fill="none" id="id98" stroke="none" /><text fill="#e1ed5e" style="font-size:6.75px; font-family:Arial;" text-anchor="middle"><textPath startOffset="19.985693538727396" xlink:href="#id98">February</textPath></text><path d="M 111.90073688211348 82.69761687909136 l 7.039684087402709 -10.234938587162052 a33.42220270054428,33.42220270054428 0 0,0 0.47120349838830333,0.33010816325280995 l -7.214818725374664 10.112245581145306" fill="red" stroke="none" /><path d="M 112.19680574252982 82.90503203632743 l 36.590417227589455 -51.28490389101772 a84.0,84.0 0 0,0 1.1698187345848452,0.8499230607333006 l -37.46778127852809 50.647461595467746" fill="red" stroke="none" /><path d="M 112.48926042617603 83.11751280151076 l 9.24184709547407 -12.49276257805667 a36.53965426152769,36.53965426152769 0 0,0 0.5024269384930958,0.3784175536702019 l -9.455520187725549 12.33182843488062" fill="red" stroke="none" /><path d="M 112.77801427241765 83.33499621200491 l 12.506333697189195 -16.310679734289824 a41.55350714452457,41.55350714452457 0 0,0 0.563876035959025,0.44011419011949166 l -12.78524228830765 16.092987154947103" fill="red" stroke="none" /><path d="M 113.34407831869373 83.78471172551755 l 12.804599878722946 -15.559731688776603 a41.151005639444165,41.151005639444165 0 0,0 0.5430805266440385,0.454814322904543 l -13.070537942326103 15.337016208478241" fill="red" stroke="none" /><path d="M 114.16331599549186 84.49514656593476 l 26.365213452776953 -28.862504407390762 a60.09179761890136,60.09179761890136 0 0,0 0.757706393241937,0.7042055146924983 l -26.858127729813738 28.404394306623622" fill="red" stroke="none" /><path d="M 114.94478906791727 85.2469230424477 l 19.735086884609036 -19.481924719677142 a48.73119263800666,48.73119263800666 0 0,0 0.5841610790168685,0.6020293411354097 l -20.06751222732901 19.13933118299162" fill="red" stroke="none" /><path d="M 115.19652480421416 85.50635884689758 l 11.062575649023712 -10.550899218848743 a36.28731677949651,36.28731677949651 0 0,0 0.42721002409052755,0.4557178673422512 l -11.242552995084703 10.358911934628436" fill="red" stroke="none" /><path d="M 115.4437574822437 85.77008943001952 l 17.414003035399173 -16.04529895940181 a44.67908613974518,44.67908613974518 0 0,0 0.5162697325368146,0.5700779332613595 l -17.68761640855202 15.743168238870902" fill="red" stroke="none" /><path d="M 115.68641384162765 86.03803664274999 l 14.458440407317594 -12.868984409568842 a40.35606516691035,40.35606516691035 0 0,0 0.45738437446224983,0.5228694068941141 l -14.677816645357693 12.618199446471781" fill="red" stroke="none" /><path d="M 115.9244219780498 86.31012108654704 l 23.25066174618234 -19.98808775612901 a51.66132619085648,51.66132619085648 0 0,0 0.5739066235003253,0.679324422756974 l -23.591278983169786 19.584904383742927" fill="red" stroke="none" /><path d="M 116.15771136456269 86.58626213691792 l 21.491933875230945 -17.842079281433183 a48.93283041122483,48.93283041122483 0 0,0 0.5324393112349634,0.6527076392412431 l -21.795871678542316 17.469487472583836" fill="red" stroke="none" /><path d="M 116.82858285166822 87.43820079747576 l 11.293868693286072 -8.430377768302153 a35.09335798798393,35.09335798798393 0 0,0 0.35717917402265453,0.4871919919608676 l -11.437310479822353 8.23472333266979" fill="red" stroke="none" /><path d="M 117.04232023915458 87.72973835380427 l 32.2141751111756 -23.19381115855031 a60.69516285584401,60.69516285584401 0 0,0 0.6031578346172677,0.8531239825281539 l -32.60864556559675 22.635860675690363" fill="red" stroke="none" /><line stroke="#e1ed5e" stroke-width="0.3" x1="172.23445277983987" x2="176.4835382374775" y1="55.19839476539836" y2="52.563006222186495" /><path d="M 173.08426987136738 54.67131705675599 a86.0,86.0 0 0,1 12.851231095245387,41.99856678651699" fill="none" id="id99" stroke="none" /><text fill="#e1ed5e" style="font-size:6.75px; font-family:Arial;" text-anchor="middle"><textPath startOffset="22.20632615414155" xlink:href="#id99">March</textPath></text><line stroke="#e1ed5e" stroke-width="0.3" x1="184.98032266829074" x2="189.97916517819016" y1="98.17113171792111" y2="98.06355123074" /><path d="M 185.9800911702706 98.14961562048488 a86.0,86.0 0 0,1 -9.607161424134198,41.387399972396054" fill="none" id="id100" stroke="none" /><text fill="#e1ed5e" style="font-size:6.75px; font-family:Arial;" text-anchor="middle"><textPath startOffset="21.466115282336823" xlink:href="#id100">April</textPath></text><line stroke="#e1ed5e" stroke-width="0.3" x1="174.80103733775053" x2="179.2010983576182" y1="140.37084112569926" y2="142.7455964860345" /><path d="M 175.68104954172406 140.8457921977663 a86.0,86.0 0 0,1 -30.038265399797805,32.042727171017184" fill="none" id="id101" stroke="none" /><text fill="#e1ed5e" style="font-size:6.75px; font-family:Arial;" text-anchor="middle"><textPath startOffset="22.206326154141568" xlink:href="#id101">May</textPath></text><line stroke="#e1ed5e" stroke-width="0.3" x1="143.8653032363475" x2="146.44561519142675" y1="172.8068346515853" y2="177.08958963109032" /><path d="M 144.38136562736335 173.6633856474863 a86.0,86.0 0 0,1 -40.68145358897372,12.25698825130547" fill="none" id="id102" stroke="none" /><text fill="#e1ed5e" style="font-size:6.75px; font-family:Arial;" text-anchor="middle"><textPath startOffset="21.466115282336833" xlink:href="#id102">June</textPath></text><line stroke="#e1ed5e" stroke-width="0.3" x1="102.19456741930631" x2="102.32365962044197" y1="184.97166512339345" y2="189.96999836594603" /><path d="M 102.22038585953345 185.97133177190398 a86.0,86.0 0 0,1 -42.740103519485714,-10.115201625700543" fill="none" id="id103" stroke="none" /><text fill="#e1ed5e" style="font-size:6.75px; font-family:Arial;" text-anchor="middle"><textPath startOffset="22.20632615414155" xlink:href="#id103">July</textPath></text><line stroke="#e1ed5e" stroke-width="0.3" x1="58.666819895761336" x2="56.23545636021788" y1="174.27360380694188" y2="178.64263932499728" /><path d="M 58.180547188652646 175.14741091055294 a86.0,86.0 0 0,1 -31.652253787137756,-30.449443065178592" fill="none" id="id104" stroke="none" /><text fill="#e1ed5e" style="font-size:6.75px; font-family:Arial;" text-anchor="middle"><textPath startOffset="22.20632615414155" xlink:href="#id104">August</textPath></text><line stroke="#e1ed5e" stroke-width="0.3" x1="26.63291911575756" x2="22.317208475507996" y1="142.92168965132927" y2="145.44649492493687" /><path d="M 25.769776987707644 143.4266507060508 a86.0,86.0 0 0,1 -11.730757126820373,-40.83630448921669" fill="none" id="id105" stroke="none" /><text fill="#e1ed5e" style="font-size:6.75px; font-family:Arial;" text-anchor="middle"><textPath startOffset="21.46611528233685" xlink:href="#id105">September</textPath></text><line stroke="#e1ed5e" stroke-width="0.3" x1="15.007084014347285" x2="10.007500721073583" y1="101.09737516637583" y2="101.16192664675087" /><path d="M 14.007167355692545 101.11028546245083 a86.0,86.0 0 0,1 10.666146001902534,-42.60595125391555" fill="none" id="id106" stroke="none" /><text fill="#e1ed5e" style="font-size:6.75px; font-family:Arial;" text-anchor="middle"><textPath startOffset="22.20632615414155" xlink:href="#id106">October</textPath></text><line stroke="#e1ed5e" stroke-width="0.3" x1="26.266209847984243" x2="21.928928074336255" y1="57.71137044288968" y2="55.22380399835378" /><path d="M 25.398753493254645 57.2138571539825 a86.0,86.0 0 0,1 29.58750427330803,-30.4925239686951" fill="none" id="id107" stroke="none" /><text fill="#e1ed5e" style="font-size:6.75px; font-family:Arial;" text-anchor="middle"><textPath startOffset="21.46611528233685" xlink:href="#id107">November</textPath></text><line stroke="#e1ed5e" stroke-width="0.3" x1="56.76296977257108" x2="54.21961505331056" y1="26.818313649435495" y2="22.513508569990535" /><path d="M 56.25429882871898 25.957352633546506 a86.0,86.0 0 0,1 42.26535254187918,-11.944610805530505" fill="none" id="id108" stroke="none" /><text fill="#e1ed5e" style="font-size:6.75px; font-family:Arial;" text-anchor="middle"><textPath startOffset="22.20632615414155" xlink:href="#id108">December</textPath></text></svg>