<?xml version="1.0" encoding="utf-8" ?>
<svg baseProfile="full" height="200mm" version="1.1" viewBox="0,0,200,200" width="200mm" xmlns="http://www.w3.org/2000/svg" xmlns:ev="http://www.w3.org/2001/xml-events" xmlns:xlink="http://www.w3.org/1999/xlink"><defs /><rect fill="#1a1a1a" height="200" width="200" x="0" y="0" /><text alignment-baseline="middle" fill="#e1ed5e" style="dominant-baseline: central; font-size:9.0px; font-family:Arial;" text-anchor="middle" x="100.0" y="100.0">2025</text><line stroke="#e1ed5e" stroke-width="0.3" x1="100.0" x2="100.0" y1="15.0" y2="10.0" /><path d="M 100.0 14.0 a86.0,86.0 0 0,1 42.46469731375804,11.215312516191453" fill="none" id="id97" stroke="none" /><text fill="#e1ed5e" style="font-size:6.75px; font-family:Arial;" text-anchor="middle"><textPath startOffset="22.20632615414155" xlink:href="#id97">January</textPath></text><path d="M 101.80526077348638 79.07773832637324 l 2.4382765867672425 -28.258665745282563 a49.36366306415981,49.36366306415981 0 0,0 0.8459400938845009,0.08033220504542242 l -2.924341807741987 28.212507995721964" fill="red" stroke="none" /><path d="M 102.16513564639614 79.11191278185805 l 1.6530691633946204 -15.947939760763736 a37.03338455448241,37.03338455448241 0 0,0 0.6335059435094639,0.07118177415706003 l -1.9273418104138094 15.917122033136076" fill="red" stroke="none" /><path d="M 102.88285421437855 79.19881850522331 l 2.0589431703533214 -14.856266529309256 a35.99826330508366,35.99826330508366 0 0,0 0.6130521718378465,0.09034795413350938 l -2.3143643226198236 14.818624091014778" fill="red" stroke="none" /><path d="M 104.66035177308747 79.52364482259891 l 3.1784079551318385 -13.965085331925444 a35.32221649945303,35.32221649945303 0 0,0 0.5916913851661478,0.1400342340868915 l -3.41832302726051 13.908305185697683" fill="red" stroke="none" /><path d="M 105.36241919743992 79.69619591428918 l 3.616001959826323 -13.69131965679051 a35.160780491127106,35.160780491127106 0 0,0 0.5838399225617995,0.15958550551698547 l -3.8511397716118334 13.627047610447232" fill="red" stroke="none" /><path d="M 106.74666289553966 80.11325718540242 l 4.594573665479311 -13.54315551893324 a35.30129954156362,35.30129954156362 0 0,0 0.573760419689932,0.20017374434865426 l -4.827016089232517 13.462060921412379" fill="red" stroke="none" /><path d="M 107.08798089147638 80.2323363322302 l 4.71894451206125 -13.160660194988854 a34.98110918617965,34.98110918617965 0 0,0 0.5650576428586391,0.2081154985824496 l -4.944784480692465 13.07748142860008" fill="red" stroke="none" /><path d="M 108.09893153111575 80.62456947434976 l 5.016787676847423 -12.001882065708049 a34.00820247819554,34.00820247819554 0 0,0 0.5381656215171443,0.23041443341593565 l -5.222637056154883 11.913748104329322" fill="red" stroke="none" /><line stroke="#e1ed5e" stroke-width="0.3" x1="143.23703022742887" x2="145.7803849466894" y1="26.81831364943548" y2="22.513508569990506" /><path d="M 143.74570117128098 25.957352633546492 a86.0,86.0 0 0,1 28.547481713284135,27.462654790039103" fill="none" id="id98" stroke="none" /><text fill="#e1ed5e" style="font-size:6.75px; font-family:Arial;" text-anchor="middle"><textPath startOffset="19.985693538727396" xlink:href="#id98">February</textPath></text><path d="M 111.90073688211348 82.69761687909136 l 4.87778799175746 -7.0917756985958045 a29.60732817149011,29.60732817149011 0 0,0 0.41741942436694973,0.29242898228711334 l -4.99913855570806 7.006761873544755" fill="red" stroke="none" /><path d="M 112.19680574252982 82.90503203632743 l 25.35345273312987 -35.53524352118149 a64.65261845068085,64.65261845068085 0 0,0 0.900379098852051,0.6541637066431539 l -25.96137714833571 35.09356057972167" fill="red" stroke="none" /><path d="M 112.48926042617603 83.11751280151076 l 6.403663889496231 -8.656219019283363 a31.767406322761346,31.767406322761346 0 0,0 0.4368076552770287,0.3289944699822689 l -6.551717698531643 8.544707959795247" fill="red" stroke="none" /><path d="M 112.77801427241765 83.33499621200491 l 8.665622430163378 -11.301648874796925 a35.24149849529007,35.24149849529007 0 0,0 0.47822284659788533,0.37326051721474957 l -8.858877831920694 11.150809968358951" fill="red" stroke="none" /><path d="M 113.34407831869373 83.78471172551755 l 8.872290681262331 -10.78131794611322 a34.96260572343133,34.96260572343133 0 0,0 0.4614106030723343,0.3864181106145066 l -9.056558821293782 10.626998678104894" fill="red" stroke="none" /><path d="M 114.16331599549186 84.49514656593476 l 18.26842227341 -19.99879194328449 a48.086655968398965,48.086655968398965 0 0,0 0.6063317807191201,0.5635193097537858 l -18.609961937923966 19.681368047456065" fill="red" stroke="none" /><path d="M 114.94478906791727 85.2469230424477 l 13.674416156585298 -13.499000420205613 a40.21490748268626,40.21490748268626 0 0,0 0.4820728259650178,0.49681842255468744 l -13.904753246253426 13.26161780210081" fill="red" stroke="none" /><path d="M 115.19652480421416 85.50635884689758 l 7.665244347438491 -7.310704411301438 a31.59256200809606,31.59256200809606 0 0,0 0.3719387481464666,0.3967583238433993 l -7.789950417555421 7.1776766705799835" fill="red" stroke="none" /><path d="M 115.4437574822437 85.77008943001954 l 12.066140161956795 -11.117766879394816 a37.40720813522383,37.40720813522383 0 0,0 0.43224271146722043,0.4772931978981465 l -12.25572651404005 10.90842089422712" fill="red" stroke="none" /><path d="M 115.68641384162765 86.03803664274999 l 10.018234642738753 -8.916902639343952 a34.41179249901034,34.41179249901034 0 0,0 0.3900136477921539,0.4458530201025144 l -10.170240154108754 8.74313406303849" fill="red" stroke="none" /><path d="M 115.9244219780498 86.31012108654704 l 16.11035342749109 -13.849720132968654 a42.24519322859247,42.24519322859247 0 0,0 0.4693026291150727,0.5555062872030895 l -16.346366670093282 13.57035489613646" fill="red" stroke="none" /><path d="M 116.15771136456269 86.58626213691792 l 14.891733162265377 -12.362753638717464 a40.354622034742405,40.354622034742405 0 0,0 0.43909961841072465,0.5382842124482429 l -15.10233127275251 12.104585256661121" fill="red" stroke="none" /><path d="M 116.82858285166822 87.43820079747576 l 7.825506998414386 -5.841397843092001 a30.76526950695742,30.76526950695742 0 0,0 0.3131280157014892,0.42710626151648934 l -7.924897626629501 5.7058291379040185" fill="red" stroke="none" /><path d="M 117.04232023915458 87.72973835380427 l 22.321160235421708 -16.070961728910166 a48.504726960060275,48.504726960060275 0 0,0 0.4820154474487119,0.6817766670119911 l -22.594488302674304 15.68435856156638" fill="red" stroke="none" /><path d="M 117.2510076193507 88.02491185347247 l 13.888541129910541 -9.640973323250535 a37.90680162942847,37.90680162942847 0 0,0 0.367471304595249,0.5392187959161643 l -14.052436900174524 9.400476504063963" fill="red" stroke="none" /><path d="M 117.45458315368197 88.32363383020206 l 52.36374946104589 -35.02909850939381 a84.0,84.0 0 0,0 0.7936134585683003,1.208727744089304 l -52.95895955497212 34.12255270132683" fill="red" stroke="none" /><path d="M 117.65298651832404 88.62581576622439 l 15.945013541120264 -10.27370192791418 a39.968194646041994,39.968194646041994 0 0,0 0.3676548682612122,0.5815417090816477 l -16.119496005627433 9.997712571118328" fill="red" stroke="none" /><line stroke="#e1ed5e" stroke-width="0.3" x1="172.23445277983987" x2="176.4835382374775" y1="55.19839476539836" y2="52.563006222186495" /><path d="M 173.08426987136738 54.67131705675599 a86.0,86.0 0 0,1 12.851231095245387,41.99856678651699" fill="none" id="id99" stroke="none" /><text fill="#e1ed5e" style="font-size:6.75px; font-family:Arial;" text-anchor="middle"><textPath startOffset="22.20632615414155" xlink:href="#id99">March</textPath></text><path d="M 118.21658344932153 89.55222093294921 l 23.535805035588055 -13.498518636114714 a48.13197604382601,48.13197604382601 0 0,0 0.40601008407902134,0.7222466357539541 l -23.76467276095951 13.091388490425965" fill="red" stroke="none" /><path d="M 118.73160827565052 90.50648371742162 l 14.994679175100185 -7.599573341809545 a37.81052998991184,37.81052998991184 0 0,0 0.2892325260859149,0.5830751233812309 l -15.12327171413951 7.340338629929364" fill="red" stroke="none" /><path d="M 119.196687751892 91.48605970444005 l 13.21147610172181 -5.859433679395575 a35.452545237071625,35.452545237071625 0 0,0 0.2426123862042768,0.5599828372247057 l -13.31037919776877 5.631151697584266" fill="red" stroke="none" /><line stroke="#e1ed5e" stroke-width="0.3" x1="184.98032266829074" x2="189.97916517819016" y1="98.17113171792111" y2="98.06355123074" /><path d="M 185.9800911702706 98.14961562048488 a86.0,86.0 0 0,1 -9.607161424134198,41.387399972396054" fill="none" id="id100" stroke="none" /><text fill="#e1ed5e" style="font-size:6.75px; font-family:Arial;" text-anchor="middle"><textPath startOffset="21.466115282336823" xlink:href="#id100">April</textPath></text><line stroke="#e1ed5e" stroke-width="0.3" x1="174.80103733775053" x2="179.2010983576182" y1="140.37084112569926" y2="142.7455964860345" /><path d="M 175.68104954172406 140.8457921977663 a86.0,86.0 0 0,1 -30.038265399797805,32.042727171017184" fill="none" id="id101" stroke="none" /><text fill="#e1ed5e" style="font-size:6.75px; font-family:Arial;" text-anchor="middle"><textPath startOffset="22.206326154141568" xlink:href="#id101">May</textPath></text><line stroke="#e1ed5e" stroke-width="0.3" x1="143.8653032363475" x2="146.44561519142675" y1="172.8068346515853" y2="177.08958963109032" /><path d="M 144.38136562736335 173.6633856474863 a86.0,86.0 0 0,1 -40.68145358897372,12.25698825130547" fill="none" id="id102" stroke="none" /><text fill="#e1ed5e" style="font-size:6.75px; font-family:Arial;" text-anchor="middle"><textPath startOffset="21.466115282336833" xlink:href="#id102">June</textPath></text><line stroke="#e1ed5e" stroke-width="0.3" x1="102.19456741930631" x2="102.32365962044197" y1="184.97166512339345" y2="189.96999836594603" /><path d="M 102.22038585953345 185.97133177190398 a86.0,86.0 0 0,1 -42.740103519485714,-10.115201625700543" fill="none" id="id103" stroke="none" /><text fill="#e1ed5e" style="font-size:6.75px; font-family:Arial;" text-anchor="middle"><textPath startOffset="22.20632615414155" xlink:href="#id103">July</textPath></text><line stroke="#e1ed5e" stroke-width="0.3" x1="58.666819895761336" x2="56.23545636021788" y1="174.27360380694188" y2="178.64263932499728" /><path d="M 58.180547188652646 175.14741091055294 a86.0,86.0 0 0,1 -31.652253787137756,-30.449443065178592" fill="none" id="id104" stroke="none" /><text fill="#e1ed5e" style="font-size:6.75px; font-family:Arial;" text-anchor="middle"><textPath startOffset="22.20632615414155" xlink:href="#id104">August</textPath></text><line stroke="#e1ed5e" stroke-width="0.3" x1="26.63291911575756" x2="22.317208475507996" y1="142.92168965132927" y2="145.44649492493687" /><path d="M 25.769776987707644 143.4266507060508 a86.0,86.0 0 0,1 -11.730757126820373,-40.83630448921669" fill="none" id="id105" stroke="none" /><text fill="#e1ed5e" style="font-size:6.75px; font-family:Arial;" text-anchor="middle"><textPath startOffset="21.46611528233685" xlink:href="#id105">September</textPath></text><line stroke="#e1ed5e" stroke-width="0.3" x1="15.007084014347285" x2="10.007500721073583" y1="101.09737516637583" y2="101.16192664675087" /><path d="M 14.007167355692545 101.11028546245083 a86.0,86.0 0 0,1 10.666146001902534,-42.60595125391555" fill="none" id="id106" stroke="none" /><text fill="#e1ed5e" style="font-size:6.75px; font-family:Arial;" text-anchor="middle"><textPath startOffset="22.20632615414155" xlink:href="#id106">October</textPath></text><line stroke="#e1ed5e" stroke-width="0.3" x1="26.266209847984243" x2="21.928928074336255" y1="57.711370442889674" y2="55.22380399835377" /><path d="M 25.398753493254645 57.213857153982495 a86.0,86.0 0 0,1 29.58750427330803,-30.492523968695096" fill="none" id="id107" stroke="none" /><text fill="#e1ed5e" style="font-size:6.75px; font-family:Arial;" text-anchor="middle"><textPath startOffset="21.46611528233685" xlink:href="#id107">November</textPath></text><line stroke="#e1ed5e" stroke-width="0.3" x1="56.762969772571076" x2="54.21961505331055" y1="26.818313649435495" y2="22.513508569990535" /><path d="M 56.25429882871897 25.957352633546506 a86.0,86.0 0 0,1 42.265352541879196,-11.944610805530505" fill="none" id="id108" stroke="none" /><text fill="#e1ed5e" style="font-size:6.75px; font-family:Arial;" text-anchor="middle"><textPath startOffset="22.20632615414155" xlink:href="#id108">December</textPath></text></svg>