<?xml version="1.0" encoding="utf-8" ?>
<svg baseProfile="full" height="200mm" version="1.1" viewBox="0,0,200,200" width="200mm" xmlns="http://www.w3.org/2000/svg" xmlns:ev="http://www.w3.org/2001/xml-events" xmlns:xlink="http://www.w3.org/1999/xlink"><defs /><rect fill="#1a1a1a" height="200" width="200" x="0" y="0" /><text alignment-baseline="middle" fill="#e1ed5e" style="dominant-baseline: central; font-size:9.0px; font-family:Arial;" text-anchor="middle" x="100.0" y="100.0">2025</text><line stroke="#e1ed5e" stroke-width="0.3" x1="100.0" x2="100.0" y1="15.0" y2="10.0" /><path d="M 100.0 14.0 a86.0,86.0 0 0,1 42.46469731375804,11.215312516191453" fill="none" id="id97" stroke="none" /><text fill="#e1ed5e" style="font-size:6.75px; font-family:Arial;" text-anchor="middle"><textPath startOffset="22.20632615414155" xlink:href="#id97">January</textPath></text><path d="M 101.80526077348638 79.07773832637324 l 1.3397023211248613 -15.526622490781683 a36.58431289086801,36.58431289086801 0 0,0 0.626941664385327,0.05953566534913146 l -1.6067691126004326 15.501261280917374" fill="#ffc212" stroke="none" /><path d="M 102.16513564639614 79.11191278185805 l 0.9082729199790793 -8.762538274208593 a29.809485609508528,29.809485609508528 0 0,0 0.5099314181991979,0.05729673638855511 l -1.0589710416880025 8.745605584349438" fill="#ff6809" stroke="none" /><path d="M 102.88285421437855 79.19881850522331 l 1.1312789366704605 -8.16272233452945 a29.240741953439638,29.240741953439638 0 0,0 0.49797125513481894,0.0733880184843825 l -1.2716191722339352 8.142039831884098" fill="#ff6008" stroke="none" /><path d="M 104.66035177308747 79.52364482259891 l 1.74636484559671 -7.673066023527887 a28.8692904620019,28.8692904620019 0 0,0 0.4835967885110007,0.11445173545496613 l -1.8781853210702342 7.641868375932051" fill="#ff5b08" stroke="none" /><path d="M 105.36241919743992 79.69619591428918 l 1.9867993012204632 -7.522646455701558 a28.780590026521725,28.780590026521725 0 0,0 0.4778977376969115,0.1306275044041933 l -2.1159949281410855 7.487332410471072" fill="#ff5a08" stroke="none" /><path d="M 106.74666289553966 80.11325718540242 l 2.5244720133997607 -7.441238201825806 a28.857797714547658,28.857797714547658 0 0,0 0.469032651575088,0.16363628243701697 l -2.652186669038122 7.396681066216582" fill="#ff5b08" stroke="none" /><path d="M 107.08798089147638 80.2323363322302 l 2.592807128763764 -7.231077518624934 a28.68187027274811,28.68187027274811 0 0,0 0.4633046345911568,0.17063900690857461 l -2.7168940891274973 7.185375243910035" fill="#ff5908" stroke="none" /><path d="M 108.09893153111575 80.62456947434976 l 2.7564559868796694 -6.5943910336333005 a28.14731017320978,28.14731017320978 0 0,0 0.445419445003405,0.19070536085819179 l -2.86955918967339 6.545966144812318" fill="#ff5107" stroke="none" /><line stroke="#e1ed5e" stroke-width="0.3" x1="143.23703022742887" x2="145.7803849466894" y1="26.81831364943548" y2="22.513508569990506" /><path d="M 143.74570117128098 25.957352633546492 a86.0,86.0 0 0,1 28.547481713284135,27.462654790039103" fill="none" id="id98" stroke="none" /><text fill="#e1ed5e" style="font-size:6.75px; font-family:Arial;" text-anchor="middle"><textPath startOffset="19.985693538727396" xlink:href="#id98">February</textPath></text><path d="M 111.90073688211348 82.69761687909136 l 2.6800831086913335 -3.896550709574047 a25.729265577420517,25.729265577420517 0 0,0 0.3627444923264995,0.2541256983480541 l -2.7467587406014835 3.849840168462057" fill="#ff2f04" stroke="none" /><path d="M 112.19680574252982 82.90503203632743 l 13.93036362627631 -19.524712038588984 a44.9847745653384,44.9847745653384 0 0,0 0.6264765721143892,0.45516187244011835 l -14.264385514744488 19.28203093133219" fill="#d4ff1c" stroke="none" /><path d="M 112.48926042617603 83.11751280151076 l 3.5184701452741747 -4.756128478301348 a26.916112766445107,26.916112766445107 0 0,0 0.3701014803421008,0.2787527619853183 l -3.5998177793746584 4.694859126810183" fill="#ff4006" stroke="none" /><path d="M 112.77801427241765 83.33499621200491 l 4.761295148666316 -6.209650419593254 a28.82494024426181,28.82494024426181 0 0,0 0.39115093186139976,0.3052995066510964 l -4.867478635687147 6.126772523718934" fill="#ff5b08" stroke="none" /><path d="M 113.34407831869373 83.78471172551755 l 4.874848277627447 -5.9237564579755375 a28.671703611538586,28.671703611538586 0 0,0 0.3783879313561892,0.31688901065645503 l -4.976093745942754 5.8389662899252635" fill="#ff5808" stroke="none" /><path d="M 114.16331599549186 84.49514656593476 l 10.037519063998134 -10.988264469878624 a35.882665924494944,35.882665924494944 0 0,0 0.4524498592966455,0.4205028344492369 l -10.225176807089627 10.813857049354747" fill="#ffb911" stroke="none" /><path d="M 114.94478906791727 85.2469230424477 l 7.513358888170067 -7.416977341275393 a31.55756196588193,31.55756196588193 0 0,0 0.37829362367695474,0.389864832147414 l -7.639916775550131 7.286548313577865" fill="#ff800b" stroke="none" /><path d="M 115.19652480421416 85.50635884689758 l 4.211641000854538 -4.016840305169716 a26.820045185160932,26.820045185160932 0 0,0 0.31575198076192995,0.33682219790663864 l -4.28016030358693 3.9437486903850227" fill="#ff3e05" stroke="none" /><path d="M 115.4437574822437 85.77008943001954 l 6.629697414034407 -6.1086171170589045 a30.01488163452408,30.01488163452408 0 0,0 0.3468239002273441,0.3829716130669109 l -6.733864954877786 5.9935927167224445" fill="#ff6b09" stroke="none" /><path d="M 115.68641384162765 86.03803664274999 l 5.504483075172887 -4.899360157910525 a28.36906126191022,28.36906126191022 0 0,0 0.32152701919014803,0.3675609644995877 l -5.588001957940883 4.80388363720799" fill="#ff5407" stroke="none" /><path d="M 115.9244219780498 86.31012108654704 l 8.851775880589217 -7.609679028935791 a32.673095183523785,32.673095183523785 0 0,0 0.3629660157543471,0.42963727727840173 l -8.981452509830682 7.456182802028283" fill="#ff8f0d" stroke="none" /><path d="M 116.15771136456269 86.58626213691792 l 8.182209348739267 -6.792670624477298 a31.63432762515962,31.63432762515962 0 0,0 0.344213884023709,0.4219655215052848 l -8.297921724839386 6.650820933363912" fill="#ff810b" stroke="none" /><path d="M 116.82858285166822 87.43820079747576 l 4.299696739349198 -3.2095350837042513 a26.36549228905406,26.36549228905406 0 0,0 0.2683472115073592,0.36602529492137603 l -4.354306563370184 3.1350473451113814" fill="#ff3805" stroke="none" /><path d="M 117.04232023915458 87.72973835380427 l 12.264281394442566 -8.830132253156496 a36.112373530663696,36.112373530663696 0 0,0 0.3588665059418005,0.5075912226843582 l -12.41446052018825 8.617714530140343" fill="#ffbc11" stroke="none" /><path d="M 117.2510076193507 88.02491185347247 l 7.63100908640084 -5.297198196938832 a30.289381487181167,30.289381487181167 0 0,0 0.2936274771817372,0.4308620910365483 l -7.72106102925131 5.1650580826318775" fill="#ff6f0a" stroke="none" /><path d="M 117.45458315368197 88.32363383020206 l 28.771074240094233 -19.246612478105263 a55.61512393176386,55.61512393176386 0 0,0 0.5254394149070448,0.800280277229619 l -29.098110290359205 18.74851413689797" fill="#5fff29" stroke="none" /><path d="M 117.65298651832404 88.62581576622439 l 8.76093047332589 -5.644848658297631 a31.42200648308831,31.42200648308831 0 0,0 0.2890411677673016,0.4571937140212903 l -8.856799237339146 5.493207296562135" fill="#ff7e0b" stroke="none" /><line stroke="#e1ed5e" stroke-width="0.3" x1="172.23445277983987" x2="176.4835382374775" y1="55.19839476539836" y2="52.563006222186495" /><path d="M 173.08426987136738 54.67131705675599 a86.0,86.0 0 0,1 12.851231095245387,41.99856678651699" fill="none" id="id99" stroke="none" /><text fill="#e1ed5e" style="font-size:6.75px; font-family:Arial;" text-anchor="middle"><textPath startOffset="22.20632615414155" xlink:href="#id99">March</textPath></text><path d="M 118.21658344932153 89.55222093294921 l 12.931663621281146 -7.416712626735472 a35.90756687731246,35.90756687731246 0 0,0 0.30289290914746836,0.5388126876743027 l -13.057414171721048 7.193016429126375" fill="#ffba11" stroke="none" /><path d="M 118.73160827565052 90.50648371742162 l 8.238772666081456 -4.175558302464544 a30.236485380308437,30.236485380308437 0 0,0 0.2312946961822482,0.4662759937097415 l -8.309427375217112 4.033122720255852" fill="#ff6e0a" stroke="none" /><path d="M 119.196687751892 91.48605970444005 l 7.25899813623233 -3.2194448092417276 a28.940899119216787,28.940899119216787 0 0,0 0.19805124137796337,0.45712957115604963 l -7.313340087452974 3.094016093499075" fill="#ff5c08" stroke="none" /><path d="M 119.34039704204932 91.81776055985345 l 23.46065871970109 -9.925376746444286 a46.47382207524312,46.47382207524312 0 0,0 0.30535140828062124,0.7394326554079701 l -23.62803181486791 9.520069520583014" fill="#c3ff1e" stroke="none" /><path d="M 119.7369772167798 92.82701384747503 l 17.736109496949933 -6.445813177163166 a39.8710913198651,39.8710913198651 0 0,0 0.22887320111240392,0.6470553599414872 l -17.844435778872146 6.1395601907950645" fill="#ffec16" stroke="none" /><path d="M 119.85752413597 93.16781622104841 l 7.735152453007775 -2.6613581207451853 a29.18018401493075,29.18018401493075 0 0,0 0.15932756511379503,0.47636914009498105 l -7.77981731189334 2.5278158777278903" fill="#ff5f08" stroke="none" /><path d="M 120.18372546131832 94.20196356495316 l 14.759751078038702 -4.239929575275782 a36.356668085524376,36.356668085524376 0 0,0 0.16760983089554551,0.6029817399779559 l -14.830547679500611 3.985236531878874" fill="#ffbf11" stroke="none" /><path d="M 120.28053869075195 94.5502522615342 l 14.264356118854957 -3.8330906138528342 a35.770390622441965,35.770390622441965 0 0,0 0.154670603759517,0.5960089303955393 l -14.328223054484777 3.5869852579084447" fill="#ffb811" stroke="none" /><path d="M 120.37134235888165 94.90015583598534 l 8.431561454277585 -2.110791165285242 a29.691758619560588,29.691758619560588 0 0,0 0.11985177302437279,0.49686297509131977 l -8.466646027562778 1.9653429585345157" fill="#ff6709" stroke="none" /><path d="M 120.45610955862082 95.25157060432595 l 9.395695014448929 -2.181000950916173 a30.645509315346583,30.645509315346583 0 0,0 0.11485588553805334,0.5148764138911531 l -9.43184528698902 2.0189463674750563" fill="#ff740a" stroke="none" /><path d="M 120.53481517161879 95.60439243477599 l 16.01323112119111 -3.427733791208969 a37.37598637896598,37.37598637896598 0 0,0 0.12925097365295216,0.6302736500807898 l -16.069861390759062 3.151584484964767" fill="#ffcd13" stroke="none" /><path d="M 120.73433829027371 96.67025291283417 l 10.258738837360768 -1.6474606174300084 a31.39018041321502,31.39018041321502 0 0,0 0.08108249006162081,0.5342323019931298 l -10.28557722086169 1.4706292030447965" fill="#ff7e0b" stroke="none" /><path d="M 120.78858239683441 97.02765380044208 l 15.267993266459415 -2.183013776222998 a36.42326708359255,36.42326708359255 0 0,0 0.08339887660781657,0.6214185008633846 l -15.303308142125067 1.9198769332949492" fill="#ffc011" stroke="none" /><path d="M 120.83666639777658 97.38593545837742 l 1.4923780954069017 -0.1872263339741188 a22.504076487344882,22.504076487344882 0 0,0 0.04491132864594566,0.3847728369522682 l -1.4953797770564363 0.16150975869699782" fill="#ff0000" stroke="none" /><path d="M 120.91429891909075 98.10471618934814 l 7.488077569325651 -0.67858034567411 a28.51876166464752,28.51876166464752 0 0,0 0.040096721856072534,0.48928156791624317 l -7.498648775001219 0.549584860550098" fill="#ff5608" stroke="none" /><path d="M 120.98425023603335 99.18683210126433 l 9.198639313873077 -0.3564596360581444 a30.205543367931632,30.205543367931632 0 0,0 0.015661294539204926,0.5197221205753587 l -9.203412302867928 0.19806736805778657" fill="#ff6e0a" stroke="none" /><line stroke="#e1ed5e" stroke-width="0.3" x1="184.98032266829074" x2="189.97916517819016" y1="98.17113171792111" y2="98.06355123074" /><path d="M 185.9800911702706 98.14961562048488 a86.0,86.0 0 0,1 -9.607161424134198,41.387399972396054" fill="none" id="id100" stroke="none" /><text fill="#e1ed5e" style="font-size:6.75px; font-family:Arial;" text-anchor="middle"><textPath startOffset="21.466115282336823" xlink:href="#id100">April</textPath></text><path d="M 120.99513854157772 99.54816195383933 l 14.955084652140116 -0.32184956607971915 a35.958547526276156,35.958547526276156 0 0,0 0.0079913469220199,0.6189386258837367 l -14.958409006179851 0.06437468213551971" fill="#ffba11" stroke="none" /><path d="M 120.99980553446 99.90962569577887 l 3.2270746641452206 -0.013887968008236171 a24.227104547984677,24.227104547984677 0 0,0 -0.0017947701053711255,0.41704136498404115 l -3.2268355967503464 -0.04166287517948969" fill="#ff1902" stroke="none" /><path d="M 120.99824983174949 100.27111621757518 l 8.02657306688699 0.10363407176415841 a29.027242068039683,29.027242068039683 0 0,0 -0.010751050915825105,0.49955909061500714 l -8.023599953286157 -0.24178297816928038" fill="#ff5d08" stroke="none" /><path d="M 120.95626037817324 101.35467743843564 l 10.80464818746676 0.6984458517723217 a31.827199502308375,31.827199502308375 0 0,0 -0.040046863758460303,0.5464076386027996 l -10.791024765043963 -0.8843266268718916" fill="#ff840c" stroke="none" /><path d="M 120.92983693683757 101.71520430193887 l 15.304919396835276 1.2542411901965815 a36.35622605677614,36.35622605677614 0 0,0 -0.056482692997344514,0.6232818105988011 l -15.281062107560857 -1.517504389343953" fill="#ffbf11" stroke="none" /><path d="M 120.81339534386255 102.79330883721812 l 8.57699356413916 1.1510948369381544 a29.653891490128025,29.653891490128025 0 0,0 -0.07225092853062524,0.5053228258639962 l -8.555908584591934 -1.29856313478256" fill="#ff6609" stroke="none" /><path d="M 120.49622156327973 104.57218783832717 l 15.980259318069653 3.5647910558447773 a37.37303952064438,37.37303952064438 0 0,0 -0.14546909999393118,0.6266770754937929 l -15.916529652145169 -3.839336788687135" fill="#ffcd13" stroke="none" /><path d="M 120.13307415673323 105.97154293290107 l 30.101717861854862 8.928278869227002 a52.397891359156546,52.397891359156546 0 0,0 -0.2639187658538576,0.8625017970480023 l -29.94357232349487 -9.44510763882706" fill="#81ff25" stroke="none" /><path d="M 119.9155931802556 106.66101706037122 l 10.058777954791681 3.364282999603501 a31.606479814020496,31.606479814020496 0 0,0 -0.17701008703507143,0.5144741695090104 l -9.99937703681338 -3.536929872201812" fill="#ff810b" stroke="none" /><path d="M 119.12269723197855 108.67885076344098 l 14.808468897735631 6.720834934497757 a37.2622376477522,37.2622376477522 0 0,0 -0.27010754301592094,0.5817876177612008 l -14.69058673787988 -6.974742619537788" fill="#ffcb12" stroke="none" /><path d="M 118.81262510543309 109.33194174019688 l 8.037474457661352 3.986963167386709 a29.972004845944795,29.972004845944795 0 0,0 -0.23324118576650898,0.4602069871143493 l -7.967654602108573 -4.124724366203753" fill="#ff6a09" stroke="none" /><path d="M 118.64920377521936 109.65438752849418 l 7.489663367438951 3.87727612818 a29.433761173504468,29.433761173504468 0 0,0 -0.2367981011319575,0.44793276764727386 l -7.4218127580821 -4.005623910913409" fill="#ff6309" stroke="none" /><line stroke="#e1ed5e" stroke-width="0.3" x1="174.80103733775053" x2="179.2010983576182" y1="140.37084112569926" y2="142.7455964860345" /><path d="M 175.68104954172406 140.8457921977663 a86.0,86.0 0 0,1 -30.038265399797805,32.042727171017184" fill="none" id="id101" stroke="none" /><text fill="#e1ed5e" style="font-size:6.75px; font-family:Arial;" text-anchor="middle"><textPath startOffset="22.206326154141568" xlink:href="#id101">May</textPath></text><path d="M 118.30583269289576 110.29060199501025 l 12.904855538358335 7.254449135213971 a35.80413215022429,35.80413215022429 0 0,0 -0.30663341412925,0.5346412037417423 l -12.778070128076706 -7.475510184814028" fill="#ffb811" stroke="none" /><path d="M 117.35343817320211 111.8261652097733 l 12.25610364414948 8.352391328863161 a35.83153793261517,35.83153793261517 0 0,0 -0.3517276535435618,0.506689918017492 l -12.110515083443781 -8.562122509067674" fill="#ffb911" stroke="none" /><path d="M 116.93607887273984 112.41649034213515 l 6.801183942063349 4.986209344338792 a29.43317180184015,29.43317180184015 0 0,0 -0.30307579940836427,0.4060195612467952 l -6.714346875959893 -5.1025417850949015" fill="#ff6309" stroke="none" /><path d="M 116.27256486870786 113.27417163493432 l 11.86698335719962 9.680365396809465 a36.31452801152549,36.31452801152549 0 0,0 -0.3992937990399621,0.4809751033158318 l -11.698593558266115 -9.883201757239068" fill="#ffbf11" stroke="none" /><path d="M 115.56566222782051 114.09645910891815 l 11.149201267073899 10.096856623132036 a36.041648930945286,36.041648930945286 0 0,0 -0.4204062555901045,0.45626795919917223 l -10.973748603488072 -10.287275837132542" fill="#ffbb11" stroke="none" /><path d="M 114.81725581225074 114.88116024355365 l 7.6621583909594 7.695204042646285 a31.859320258013817,31.859320258013817 0 0,0 -0.39194556694917587,0.38360123086645764 l -7.52856287163443 -7.8259553764353145" fill="#ff840c" stroke="none" /><path d="M 114.29624159901734 115.38237550388516 l 4.980951618309842 5.359371386448371 a28.31660718378573,28.31660718378573 0 0,0 -0.3598912007105832,0.328752078911109 l -4.887960868132394 -5.444316231946063" fill="#ff5307" stroke="none" /><path d="M 112.63410532772338 116.77436683061366 l 4.909783044244606 6.51874428038561 a29.160882092924265,29.160882092924265 0 0,0 -0.4035519339074259,0.29853807314053993 l -4.796846139918616 -6.602292302265918" fill="#ff5f08" stroke="none" /><path d="M 112.04921762599082 117.19931262002967 l 9.565507567183865 13.654011415842952 a37.67126158279035,37.67126158279035 0 0,0 -0.5342917100002177,0.3674907100700707 l -9.329058972560764 -13.816642915278116" fill="#ffd013" stroke="none" /><path d="M 111.7513745106137 117.40417183066458 l 5.227920679601469 7.742722329433866 a30.342424936969977,30.342424936969977 0 0,0 -0.4353781111948811,0.288544871657192 l -5.0938678696666235 -7.831565222182377" fill="#ff6f0a" stroke="none" /><path d="M 111.45004920935366 117.60387380957326 l 9.33760625952357 14.356099198407996 a38.12566713598114,38.12566713598114 0 0,0 -0.5532183135921304,0.3530901023530777 l -9.089106143884509 -14.514703729584882" fill="#ffd614" stroke="none" /><line stroke="#e1ed5e" stroke-width="0.3" x1="143.8653032363475" x2="146.44561519142675" y1="172.8068346515853" y2="177.08958963109032" /><path d="M 144.38136562736335 173.6633856474863 a86.0,86.0 0 0,1 -40.68145358897372,12.25698825130547" fill="none" id="id102" stroke="none" /><text fill="#e1ed5e" style="font-size:6.75px; font-family:Arial;" text-anchor="middle"><textPath startOffset="21.466115282336833" xlink:href="#id102">June</textPath></text><path d="M 110.21172684928248 118.3499491758327 l 5.131418177102181 9.220895166852722 a31.55255230673521,31.55255230673521 0 0,0 -0.47686001568947634,0.2600221017866355 l -4.971935349544056 -9.307857920399128" fill="#ff800b" stroke="none" /><path d="M 109.89434966115114 118.52300852407294 l 3.166476984646581 5.927896444592148 a27.720605088242035,27.720605088242035 0 0,0 -0.4228172379635352,0.2211979953257504 l -3.06396884415655 -5.981523858862615" fill="#ff4b07" stroke="none" /><path d="M 109.2508944713604 118.85261126421891 l 3.3880973153924785 6.9046816835048155 a28.69115287646115,28.69115287646115 0 0,0 -0.4452420601384463,0.21374324618189017 l -3.2687425872537994 -6.961979206186266" fill="#ff5908" stroke="none" /><path d="M 108.59647513512805 119.15986991738527 l 6.079641682110011 13.55033800976685 a35.85172391211814,35.85172391211814 0 0,0 -0.5652268840562167,0.24777885548329295 l -5.8454941233960405 -13.652981418544599" fill="#ffb911" stroke="none" /><path d="M 107.93186726928326 119.44442032107085 l 3.544903217582472 8.690083409126254 a30.38530172554926,30.38530172554926 0 0,0 -0.48598964036765285,0.19338530758539899 l -3.3947925011729527 -8.749815561117723" fill="#ff700a" stroke="none" /><path d="M 106.2309692047433 120.05430185196036 l 2.457549841006952 7.909595555419045 a29.282587341606366,29.282587341606366 0 0,0 -0.48263982343186845,0.14541541964517962 l -2.3210350431348377 -7.95072634416995" fill="#ff6108" stroke="none" /><path d="M 105.18746579009965 120.34920634021253 l 3.6679408883357003 14.388468088386512 a35.84862971088046,35.84862971088046 0 0,0 -0.5992639860219768,0.14728450774385934 l -3.4197236175705124 -14.4494738544444" fill="#ffb911" stroke="none" /><path d="M 104.48393922423573 120.51570834832081 l 1.1891865646897581 5.440975783313613 a26.56941488490881,26.56941488490881 0 0,0 -0.44764218338600553,0.09380777187196201 l -1.0953529198743748 -5.460639535912116" fill="#ff3b05" stroke="none" /><path d="M 103.06178313531738 120.77559828337769 l 1.7268475787771382 11.717450259447713 a32.844012966176614,32.844012966176614 0 0,0 -0.560023904470327,0.07761421021014807 l -1.5248950831199808 -11.745439035150463" fill="#ff910d" stroke="none" /><path d="M 102.70371172650421 120.8252237178851 l 0.7602090659951001 5.855477755456556 a26.904620018990865,26.904620018990865 0 0,0 -0.45977763419231776,0.05567266846526605 l -0.6593040087514019 -5.867695952647173" fill="#ff4006" stroke="none" /><path d="M 102.34483914955558 120.86867818915974 l 0.8284157995872472 7.372762746510034 a28.419157853377428,28.419157853377428 0 0,0 -0.48660013314259126,0.050438093388136665 l -0.7013830698390532 -7.385930208353929" fill="#ff5507" stroke="none" /><line stroke="#e1ed5e" stroke-width="0.3" x1="102.19456741930631" x2="102.32365962044197" y1="184.97166512339345" y2="189.96999836594603" /><path d="M 102.22038585953345 185.97133177190398 a86.0,86.0 0 0,1 -42.740103519485714,-10.115201625700543" fill="none" id="id103" stroke="none" /><text fill="#e1ed5e" style="font-size:6.75px; font-family:Arial;" text-anchor="middle"><textPath startOffset="22.20632615414155" xlink:href="#id103">July</textPath></text><path d="M 100.54218724476979 120.99299961872073 l 0.21197183738359485 8.207357779622274 a29.210094626894993,29.210094626894993 0 0,0 -0.5027478885814018,0.008655260833035734 l -0.07066425890952499 -8.209790517734469" fill="#ff6008" stroke="none" /><path d="M 99.81925306533755 120.99922214144158 l -0.08346907257419545 9.697456834878183 a30.69781605055499,30.69781605055499 0 0,0 -0.5283537215681158,-0.009096088469274082 l 0.25038248403497915 -9.694583269129751" fill="#ff740a" stroke="none" /><path d="M 99.45781275523022 120.99299961872073 l -0.20697696969484256 8.013961021404654 a29.016633378081924,29.016633378081924 0 0,0 -0.4991961477342501,-0.017193324672362315 l 0.3448934691037357 -8.009210898306199" fill="#ff5d08" stroke="none" /><path d="M 98.01472825383883 120.90594882070398 l -1.4093268495840443 14.840948120084713 a35.90771422022855,35.90771422022855 0 0,0 -0.6148211220950472,-0.06372872315704661 l 1.664580568284685 -14.814490028471907" fill="#ffba11" stroke="none" /><path d="M 97.2962882734958 120.8252237178851 l -0.9996311007788486 7.699615719014402 a28.76423496283684,28.76423496283684 0 0,0 -0.49045953031314277,-0.06797322182398018 l 1.1320192222788226 -7.681267931697817" fill="#ff5a08" stroke="none" /><path d="M 93.42475214034765 119.94407469862007 l -1.852422696248749 5.618777788455506 a26.916260109361186,26.916260109361186 0 0,0 -0.4387738338842243,-0.14885590728449563 l 1.948866263070199 -5.586058894272887" fill="#ff4006" stroke="none" /><path d="M 93.08242187328487 119.8279376855182 l -2.6735573739187313 7.663249772921766 a29.116237189352017,29.116237189352017 0 0,0 -0.47179457064770464,-0.16916874738746035 l 2.8050715051961626 -7.616093484494348" fill="#ff5f08" stroke="none" /><path d="M 92.7421414339146 119.70592522655815 l -5.181927080409127 14.069531204862765 a35.99346779738712,35.99346779738712 0 0,0 -0.5795458724001129,-0.21913465917268998 l 5.423343173569523 -13.978248295583441" fill="#ffbb11" stroke="none" /><path d="M 92.06813273071674 119.44442032107085 l -3.0189305609523007 7.400698064453002 a28.99276382567696,28.99276382567696 0 0,0 -0.460472104948229,-0.19247737721375385 l 3.1458741253979916 -7.347635644219276" fill="#ff5d08" stroke="none" /><line stroke="#e1ed5e" stroke-width="0.3" x1="58.666819895761336" x2="56.23545636021788" y1="174.27360380694188" y2="178.64263932499728" /><path d="M 58.180547188652646 175.14741091055294 a86.0,86.0 0 0,1 -31.652253787137756,-30.449443065178592" fill="none" id="id104" stroke="none" /><text fill="#e1ed5e" style="font-size:6.75px; font-family:Arial;" text-anchor="middle"><textPath startOffset="22.20632615414155" xlink:href="#id104">August</textPath></text><path d="M 88.54995079064634 117.60387380957326 l -5.066231832900933 7.789076207949797 a30.291738973838445,30.291738973838445 0 0,0 -0.43465082723725285,-0.28806286750765586 l 5.199557358878147 -7.700715319350822" fill="#ff6f0a" stroke="none" /><path d="M 88.24862548938628 117.40417183066458 l -5.8272607329090915 8.630364644240897 a31.413460593955666,31.413460593955666 0 0,0 -0.44553728419427746,-0.306444606694679 l 5.974954901726259 -8.528779248181117" fill="#ff7e0b" stroke="none" /><path d="M 87.95078237400918 117.19931262002967 l -5.166740273349847 7.375116289389304 a30.004862316230643,30.004862316230643 0 0,0 -0.4204576672058775,-0.2999853817079416 l 5.292925268404612 -7.2850866458371435" fill="#ff6b09" stroke="none" /><path d="M 86.51685102203217 116.09983520530335 l -10.817290129093902 12.91661085484906 a37.84792573917029,37.84792573917029 0 0,0 -0.49587004813302726,-0.422591212689924 l 11.038025653803984 -12.728495251936184" fill="#ffd313" stroke="none" /><path d="M 85.97065885151581 115.62618273729859 l -5.440768895911587 6.060045735512717 a29.144085000491145,29.144085000491145 0 0,0 -0.3704080674765415,-0.3383589873493055 l 5.5442765128549825 -5.965493981576836" fill="#ff5f08" stroke="none" /><path d="M 85.18274418774928 114.88116024355367 l -3.2412465523526266 3.2552255252653732 a25.593710094626893,25.593710094626893 0 0,0 -0.3095125056257778,-0.3135345341021805 l 3.2967996830339374 -3.198950497182528" fill="#ff2d04" stroke="none" /><path d="M 84.19399662182784 113.82643327865904 l -3.556567015332887 3.1111366587766924 a25.725287318686355,25.725287318686355 0 0,0 -0.28868365000439505,-0.33580430403340006 l 3.609593174908061 -3.049455255581762" fill="#ff2f04" stroke="none" /><path d="M 82.44556493220864 111.52570212397912 l -8.678026481297106 5.697725267784266 a31.38133983825022,31.38133983825022 0 0,0 -0.29258636766864576,-0.4541005401127997 l 8.774817712342797 -5.5475031277500175" fill="#ff7e0b" stroke="none" /><path d="M 82.24976979558568 111.22182372390057 l -3.7607784955308268 2.3775913244768767 a25.449314036868472,25.449314036868472 0 0,0 -0.23090448667705155,-0.37229155411254633 l 3.801147621875834 -2.3125034389990664" fill="#ff2b04" stroke="none" /><path d="M 82.05923443525364 110.91462005526583 l -7.090348117276555 4.313553704291831 a29.29938443403949,29.29938443403949 0 0,0 -0.2584193489263643,-0.4331256930537661 l 7.163548341901151 -4.190865917351954" fill="#ff6109" stroke="none" /><line stroke="#e1ed5e" stroke-width="0.3" x1="26.63291911575756" x2="22.317208475507996" y1="142.92168965132927" y2="145.44649492493687" /><path d="M 25.769776987707644 143.4266507060508 a86.0,86.0 0 0,1 -11.730757126820373,-40.83630448921669" fill="none" id="id105" stroke="none" /><text fill="#e1ed5e" style="font-size:6.75px; font-family:Arial;" text-anchor="middle"><textPath startOffset="21.46611528233685" xlink:href="#id105">September</textPath></text><path d="M 81.69416730710424 110.29060199501025 l -9.107148981854369 5.119572928135458 a31.447496807570154,31.447496807570154 0 0,0 -0.26119930033039795,-0.4741526005650985 l 9.193924691636283 -4.962049809172537" fill="#ff7f0b" stroke="none" /><path d="M 81.35079622478065 109.6543875284942 l -9.198027331262267 4.761668188305412 a31.357470285845256,31.357470285845256 0 0,0 -0.24402283363097366,-0.4814802012061431 l 9.278628834679507 -4.602633775396584" fill="#ff7d0b" stroke="none" /><path d="M 80.87730276802145 108.67885076344099 l -4.53726549528609 2.0592414150576324 a25.982695393078156,25.982695393078156 0 0,0 -0.18133312631271933,-0.40885832928791643 l 4.572039706330089 -1.98083474927702" fill="#ff3204" stroke="none" /><path d="M 79.76711848015287 105.62410040840567 l -14.6354239520315 4.068184442491237 a36.19031793327003,36.19031793327003 0 0,0 -0.1616706353868011,-0.601636577226879 l 14.703282663760076 -3.815656932088819" fill="#ffbd11" stroke="none" /><path d="M 79.67330655649465 105.27499134158121 l -8.140537088750776 2.1125552357213992 a29.410186306931664,29.410186306931664 0 0,0 -0.12294674296299986,-0.4911111226655699 l 8.175695146008835 -1.9721162736584377" fill="#ff6309" stroke="none" /><path d="M 79.58551787078972 104.9243191809786 l -8.09577016674373 1.9528370136731297 a29.327968959759012,29.327968959759012 0 0,0 -0.1141548373893784,-0.4917760517637752 l 8.128185570063664 -1.8131923045607803" fill="#ff6209" stroke="none" /><path d="M 79.18660465613746 102.79330883721812 l -8.292958141425341 1.1129752200644296 a29.36730951835238,29.36730951835238 0 0,0 -0.06292783837173946,-0.5015967870752092 l 8.310887489043928 -0.9700606787018118" fill="#ff6209" stroke="none" /><line stroke="#e1ed5e" stroke-width="0.3" x1="15.007084014347285" x2="10.007500721073583" y1="101.09737516637583" y2="101.16192664675087" /><path d="M 14.007167355692545 101.11028546245083 a86.0,86.0 0 0,1 10.666146001902534,-42.60595125391555" fill="none" id="id106" stroke="none" /><text fill="#e1ed5e" style="font-size:6.75px; font-family:Arial;" text-anchor="middle"><textPath startOffset="22.20632615414155" xlink:href="#id106">October</textPath></text><path d="M 79.26566170972629 96.67025291283419 l -5.9271032192485835 -0.951839137730377 a27.003045086932318,27.003045086932318 0 0,0 0.07765064886120619,-0.45829852513005415 l 5.909840708867154 1.0537234511762592" fill="#ff4106" stroke="none" /><line stroke="#e1ed5e" stroke-width="0.3" x1="26.266209847984243" x2="21.928928074336255" y1="57.711370442889674" y2="55.22380399835377" /><path d="M 25.398753493254645 57.213857153982495 a86.0,86.0 0 0,1 29.58750427330803,-30.492523968695096" fill="none" id="id107" stroke="none" /><text fill="#e1ed5e" style="font-size:6.75px; font-family:Arial;" text-anchor="middle"><textPath startOffset="21.46611528233685" xlink:href="#id107">November</textPath></text><path d="M 83.17141714833178 87.43820079747576 l -3.8303490930794455 -2.8591876456231167 a25.779804197635965,25.779804197635965 0 0,0 0.2685077825873571,-0.3533247677564689 l 3.7805653702679796 2.924697189260612" fill="#ff3004" stroke="none" /><path d="M 83.84228863543731 86.58626213691792 l -11.403329339674075 -9.466765872811518 a35.820781899741334,35.820781899741334 0 0,0 0.39793372541915145,-0.47102801613813927 l 11.238685000767799 9.661652838578773" fill="#ffb911" stroke="none" /><path d="M 84.31358615837235 86.03803664274999 l -4.9115842223554935 -4.371640301659872 a27.575324972987133,27.575324972987133 0 0,0 0.3186346650845007,-0.3518443555546718 l 4.835605916654948 4.4555374444841" fill="#ff4906" stroke="none" /><path d="M 85.05521093208273 85.24692304244772 l -44.83436720375183 -44.259230872656865 a84.0,84.0 0 0,0 1.0246567993307472,-1.0202565973995625 l 44.06587460425377 45.02442332070654" fill="#4dd2ff" stroke="none" /><path d="M 86.10567301691215 84.25364557470407 l -9.038035904442792 -10.242749924709079 a34.660161749778986,34.660161749778986 0 0,0 0.45075738637002566,-0.3908923636230401 l 8.860384719425992 10.3968072817518" fill="#ffa90f" stroke="none" /><path d="M 87.22198572758235 83.33499621200491 l -3.563328293515786 -4.647269774732782 a26.856144199600536,26.856144199600536 0 0,0 0.3692769015644743,-0.2781317063453187 l 3.4828052381929218 4.707918070583954" fill="#ff3f05" stroke="none" /><path d="M 87.51073957382395 83.11751280151077 l -6.1273537168298375 -8.28271388017392 a31.302806063979567,31.302806063979567 0 0,0 0.4359358211752413,-0.3167259135647537 l 5.983872579300814 8.386959028555342" fill="#ff7d0b" stroke="none" /><line stroke="#e1ed5e" stroke-width="0.3" x1="56.762969772571076" x2="54.21961505331055" y1="26.818313649435495" y2="22.513508569990535" /><path d="M 56.25429882871897 25.957352633546506 a86.0,86.0 0 0,1 42.265352541879196,-11.944610805530505" fill="none" id="id108" stroke="none" /><text fill="#e1ed5e" style="font-size:6.75px; font-family:Arial;" text-anchor="middle"><textPath startOffset="22.20632615414155" xlink:href="#id108">December</textPath></text><path d="M 89.3179101791058 81.91981866633112 l -7.50262577243452 -12.698716891421755 a35.7494679283586,35.7494679283586 0 0,0 0.532502399076991,-0.3084597601969724 l 7.282926640892208 12.825980809008776" fill="#ffb811" stroke="none" /></svg>